<svg width="401" height="312" viewBox="0 0 401 312" fill="none" xmlns="http://www.w3.org/2000/svg">
<path fill-rule="evenodd" clip-rule="evenodd" d="M340.118 44.3272C275.504 7.24869 225.125 116.087 188.532 129.789C114.786 157.402 -22.1911 181.418 3.93181 235.103C39.8005 308.815 164.603 316.17 253.852 308.815C369.937 299.249 467.155 117.227 340.118 44.3272Z" fill="#FFB61D"/>
<path fill-rule="evenodd" clip-rule="evenodd" d="M330.749 163.133C331.414 163.72 331.641 164.64 331.807 165.52L332.82 171.043C332.961 171.811 333.605 172.175 333.853 171.738C334.116 171.275 334.817 171.467 335.287 171.717L341.155 174.839C339.159 176.272 336.803 177.2 334.366 177.515C333.165 177.67 332.97 179.316 333.098 180.52L333.446 183.798C333.554 184.819 331.948 185.166 331.145 184.525C330.343 183.885 330.038 182.812 329.406 182.003C328.384 180.696 326.579 180.208 324.927 180.36C323.275 180.511 321.728 181.204 320.216 181.887C319.242 182.327 318.17 181.161 318.246 180.094C318.313 179.153 318.915 178.364 319.529 177.629L319.774 177.338C320.463 176.52 321.152 175.55 321.035 174.487C320.938 173.602 320.306 172.889 319.672 172.252L319.301 171.88C318.713 171.279 318.155 170.612 318.052 169.79C317.935 168.851 318.792 167.77 319.692 168.061C323.16 169.182 327.335 166.997 328.391 163.508C328.665 162.602 330.039 162.507 330.749 163.133Z" fill="white"/>
<path fill-rule="evenodd" clip-rule="evenodd" d="M330.749 163.133C331.414 163.72 331.641 164.64 331.807 165.52L332.82 171.043C332.961 171.811 332.651 173 331.918 172.731C330.874 170.517 330.319 168.075 330.303 165.627C329.904 165.245 329.312 165.814 329.064 166.308L326.588 171.241C326.152 172.109 324.85 171.918 323.991 171.463L323.531 171.22C322.785 170.833 321.974 170.491 321.267 170.872C320.906 171.952 322.51 172.491 323.342 173.268C324.292 174.156 324.236 175.75 323.572 176.868C322.907 177.986 321.785 178.74 320.699 179.455C322.259 179.713 323.922 179.257 325.133 178.24C325.68 177.781 326.181 177.192 326.88 177.046C327.962 176.82 328.933 177.757 329.494 178.709C330.056 179.661 330.5 180.775 331.459 181.324C331.939 180.568 331.683 179.618 331.38 178.743L331.237 178.335C330.89 177.358 330.734 176.063 331.585 175.469C331.905 175.246 332.302 175.181 332.693 175.138L336.878 174.719L334.467 172.963C334.061 172.667 333.605 172.175 333.853 171.738C334.116 171.275 334.817 171.467 335.287 171.717L341.155 174.839C339.159 176.272 336.803 177.2 334.366 177.515C333.165 177.67 332.97 179.316 333.098 180.52L333.446 183.798C333.554 184.819 331.948 185.166 331.145 184.525C330.343 183.885 330.038 182.812 329.406 182.003C328.384 180.696 326.579 180.208 324.927 180.36C323.275 180.511 321.728 181.204 320.216 181.887C319.242 182.327 318.17 181.161 318.246 180.094C318.313 179.153 318.915 178.364 319.529 177.629L319.774 177.338C320.463 176.52 321.152 175.55 321.035 174.487C320.938 173.602 320.306 172.889 319.672 172.252L319.301 171.88C318.713 171.279 318.155 170.612 318.052 169.79C317.935 168.851 318.792 167.77 319.692 168.061C323.16 169.182 327.335 166.997 328.391 163.508C328.665 162.602 330.039 162.507 330.749 163.133Z" fill="#FFB61D"/>
<path fill-rule="evenodd" clip-rule="evenodd" d="M99.883 64.085C97.3721 52.9262 104.213 34.4031 116.436 26.9554C128.658 19.5077 144.292 18.9975 157.905 23.4203C157.471 10.2702 170.807 -1.01396 183.919 0.0724772C197.031 1.15892 207.911 12.9312 209.673 25.97C211.045 36.1295 205.83 48.2308 195.745 50.071C199.31 62.8085 201.292 76.2102 199.335 89.2916C197.378 102.373 191.153 115.151 180.647 123.187C177.746 127.089 179.937 132.974 183.756 135.984C187.574 138.993 192.517 140.05 197.086 141.711C216.231 148.669 229.711 167.558 232.853 187.685C235.995 207.812 229.719 228.686 218.377 245.607C210.609 257.197 200.041 267.49 186.819 271.948C168.261 278.204 147.913 272.113 129.893 264.444C123.023 261.521 116.028 258.198 111.179 252.522C105.98 246.437 96.1554 249.724 89.0702 253.445C93.7813 255.4 98.4924 257.355 103.203 259.309C104.216 259.729 105.314 260.228 105.783 261.219C106.772 263.303 104.337 265.31 102.277 266.347C100.063 267.462 97.8483 268.577 95.6341 269.692C82.0429 276.536 67.8881 283.529 52.6768 283.952C36.0462 284.414 20.3369 276.98 5.36966 269.716C3.70602 268.908 1.94256 268.01 1.03798 266.397C0.133402 264.784 0.639038 262.268 2.42682 261.796C19.2175 257.355 35.1142 249.562 48.9079 239.008C47.8527 232.439 48.1014 225.662 49.6353 219.188C49.8572 218.251 50.1763 217.224 51.0108 216.745C53.0625 215.566 54.8447 218.671 55.2072 221.009C56.1222 226.912 57.0373 232.814 57.9524 238.716C68.9402 237.501 79.6043 233.465 88.6433 227.1C81.5934 221.423 74.5434 215.745 67.4934 210.067C63.4256 206.791 59.4992 204.832 57.3023 198.417C55.8377 194.141 57.0197 189.748 60.8484 185.238C56.5743 163.938 54.7042 147.882 55.238 137.069C55.3805 134.183 55.7035 131.067 57.6462 128.928C61.0754 125.152 67.8087 126.78 70.9387 130.807C74.0687 134.835 74.5926 140.24 74.9974 145.325C86.9152 143.869 98.8331 142.413 110.751 140.956C115.111 140.424 119.627 139.903 123.823 141.201C129.089 142.829 133.317 147.44 134.484 152.827C139.513 151.467 144.991 149.793 147.831 145.426C150.671 141.059 148.266 133.463 143.061 133.688C126.781 134.393 110.859 122.312 107.153 106.443C106.211 102.408 105.845 97.9226 103.011 94.8979C98.5216 90.1047 95.1008 83.9255 95.1227 77.3581C95.1446 70.7907 97.8961 70.0071 99.883 64.085ZM2.702 266.195C3.06855 266.743 3.70832 267.03 4.31425 267.289C10.5312 269.95 16.7482 272.611 22.9652 275.271C25.794 276.482 28.632 277.696 31.5903 278.542C39.8405 280.903 48.7307 280.327 56.9336 282.847C57.9286 283.153 58.9966 282.837 59.9873 282.518C67.1417 280.213 74.212 277.648 81.1793 274.828C88.4685 271.878 95.6919 268.623 102.164 264.156C102.752 263.75 103.364 263.298 103.632 262.635C103.901 261.972 103.653 261.05 102.965 260.854C98.5975 259.614 94.2931 258.151 90.0743 256.472C88.718 255.933 87.1912 255.163 86.9035 253.732C83.1869 253.882 79.9368 256.226 77.1954 258.74C74.454 261.254 71.8787 264.093 68.5008 265.65C65.1228 267.208 60.5891 267.073 58.249 264.182C57.9991 263.873 57.7481 263.518 57.3638 263.417C56.9795 263.317 56.4858 263.7 56.6649 264.054C57.1289 264.973 56.1324 266.134 55.1054 266.07C54.0783 266.006 53.2754 265.071 53.0226 264.073C52.7698 263.076 51.3975 264.858 49.4088 265.154C47.4201 265.451 45.3102 264.175 44.6496 262.276C44.1052 260.71 41.9707 260.683 40.3396 260.39C36.631 259.724 33.8148 255.838 34.3363 252.106C23.6781 255.661 13.2131 259.795 3.00292 264.483C2.40396 264.759 2.33544 265.648 2.702 266.195Z" fill="white"/>
<path d="M152.333 112.667C155.463 112.667 158 110.13 158 107C158 103.87 155.463 101.333 152.333 101.333C149.204 101.333 146.667 103.87 146.667 107C146.667 110.13 149.204 112.667 152.333 112.667Z" fill="#FFB61D"/>
<path d="M113 108C114.657 108 116 106.657 116 105C116 103.343 114.657 102 113 102C111.343 102 110 103.343 110 105C110 106.657 111.343 108 113 108Z" fill="#FFB61D"/>
<path fill-rule="evenodd" clip-rule="evenodd" d="M179.394 129.743C179.914 132.437 181.456 135.046 183.51 136.664C187.328 139.673 195.911 142.772 200.481 144.432C200.896 144.583 198.552 145.907 195.526 148.835C187.332 156.762 169.417 170.955 151.915 163.822C149.869 162.989 148.159 162.029 146.765 161.012C145.481 160.074 157.265 161.424 168.281 159.336C179.357 157.236 189.662 151.688 186.904 147.29C184.311 143.156 177.019 136.153 176.451 132.035C175.693 126.547 178.948 127.428 179.394 129.743Z" fill="#E7EAEE"/>
<path fill-rule="evenodd" clip-rule="evenodd" d="M2.47705 264.637C2.47705 262.439 9.40836 260.66 21.2574 256.203C29.4072 253.137 45.2922 244.267 53.1078 243.854C58.3083 243.579 79.0915 251.188 92.6551 256.652C99.4751 259.4 104.736 261.121 104.736 262.002C104.736 263.773 90.2552 272.321 75.4551 277.939C68.2312 280.681 61.4536 283.137 55.2379 282.971C36.288 282.466 2.47705 270.202 2.47705 264.637Z" fill="white"/>
<path fill-rule="evenodd" clip-rule="evenodd" d="M270.188 82.0623C243.014 93.6684 220.313 113.5 198.684 133.667L197.361 134.902C196.099 136.082 194.184 137.315 192.822 136.252L197.025 132.426C219.016 112.446 241.753 92.6351 268.961 80.8646C289.881 71.815 289.658 73.7465 270.188 82.0623ZM153.138 275.385L165.886 289.27C166.51 289.95 167.161 290.68 167.336 291.587C167.51 292.494 166.985 293.602 166.066 293.698L139.82 296.443C135.461 296.898 131.015 293.876 129.76 289.676C128.505 285.477 130.514 280.557 134.311 278.367C138.107 276.177 143.315 276.868 146.467 279.914C147.248 280.669 148.619 280.028 149.173 279.094C149.727 278.16 149.847 277.015 150.42 276.093C150.992 275.171 152.404 274.585 153.138 275.385ZM131.973 283.399C130.346 286.488 131.375 290.672 134.161 292.776C135.526 293.808 137.202 294.361 138.891 294.633C141.276 295.018 144.044 294.727 145.578 292.859C146.138 292.178 146.481 291.342 146.715 290.491C147.494 287.66 147.098 284.525 145.639 281.977C145.241 281.283 144.63 280.559 143.832 280.594C143.452 280.61 143.1 280.802 142.722 280.841C142.093 280.906 141.511 280.547 140.938 280.28C137.773 278.806 133.601 280.31 131.973 283.399ZM152.006 278.17C151.505 280.26 150.468 282.218 149.021 283.807C148.614 284.255 148.714 284.947 148.796 285.546C149.198 288.466 148.534 291.521 146.955 294.009C149.542 293.397 152.188 293.03 154.845 292.917C158.487 292.762 162.286 293.055 165.624 291.59C163.841 290.814 162.327 289.433 161.391 287.729C160.84 286.726 160.078 285.859 159.323 285L153.519 278.405C153.099 277.928 152.154 277.552 152.006 278.17ZM86.0917 278.045C86.924 280.644 90.0544 281.534 92.7664 282.002L110.865 285.025C115.05 285.723 119.345 286.421 123.507 285.596C124.292 285.44 124.707 286.687 124.189 287.297C123.671 287.908 122.77 287.98 121.969 287.983C118.343 287.995 114.739 287.513 111.15 286.974L107.328 286.391C100.563 285.351 93.8014 284.244 87.1798 282.521C86.0464 282.226 84.8723 281.889 84.0047 281.102C83.1371 280.316 82.6858 278.942 83.2963 277.942C83.9069 276.943 85.7345 276.929 86.0917 278.045ZM183.919 0.0724773C197.031 1.15892 207.911 12.9312 209.673 25.97C211.045 36.1295 205.83 48.2308 195.745 50.071C199.31 62.8085 201.292 76.2102 199.335 89.2916C197.378 102.373 191.153 115.151 180.647 123.187C177.746 127.089 179.937 132.974 183.756 135.984C187.575 138.993 192.517 140.05 197.086 141.711C216.231 148.669 229.711 167.558 232.853 187.685C235.995 207.812 229.719 228.686 218.378 245.607C210.609 257.197 200.041 267.49 186.819 271.948C168.447 278.142 148.32 272.233 130.434 264.674L129.893 264.444C123.166 261.582 116.319 258.337 111.484 252.874L111.179 252.522C105.98 246.437 96.1554 249.724 89.0702 253.445L103.203 259.309C104.216 259.729 105.314 260.228 105.783 261.219C106.772 263.303 104.337 265.31 102.277 266.347L93.9783 270.525C80.8935 277.092 67.2714 283.546 52.6768 283.952C36.2396 284.408 20.7023 277.152 5.89207 269.969L4.95223 269.512C3.41808 268.754 1.86718 267.875 1.03798 266.397C0.133401 264.784 0.639038 262.268 2.42682 261.796C19.2175 257.355 35.1142 249.562 48.9079 239.009C47.8527 232.439 48.1014 225.662 49.6353 219.188L49.7134 218.873C49.9344 218.03 50.269 217.171 51.0108 216.745C53.0625 215.566 54.8447 218.671 55.2072 221.009L57.9524 238.716C68.9402 237.501 79.6043 233.465 88.6434 227.1L66.9249 209.609C63.0364 206.463 59.0995 203.061 57.3023 198.417C55.4174 193.546 56.9338 186.944 61.8047 185.059C62.189 166.607 61.2164 148.128 58.8974 129.82C55.6907 148.106 58.2678 166.853 60.8485 185.238C56.4235 169.921 54.5074 153.882 55.197 137.954L55.238 137.069C55.3805 134.183 55.7036 131.067 57.6462 128.928C61.0754 125.152 67.8087 126.78 70.9387 130.807C74.0687 134.835 74.5926 140.24 74.9974 145.325L111.57 140.857C115.675 140.366 119.889 139.984 123.823 141.201C129.089 142.829 133.317 147.441 134.484 152.827L135.342 152.592C140.125 151.269 145.152 149.546 147.831 145.426C150.641 141.105 148.316 133.625 143.226 133.684L143.061 133.689C126.781 134.393 110.859 122.312 107.153 106.443C106.211 102.408 105.845 97.9226 103.011 94.8979C98.5216 90.1047 95.1008 83.9255 95.1227 77.3581C95.1447 70.7907 99.3322 64.0179 105.709 62.448C112.086 60.8781 119.633 66.1986 119.083 72.7429C122.177 72.4279 125.342 72.8305 128.258 73.9103C126.595 69.4263 130.906 64.4768 135.644 63.826C140.382 63.1752 144.999 65.5417 148.939 68.2524C152.879 70.9631 156.644 74.1543 161.225 75.5282L161.436 75.0396C162.383 72.8292 163.255 70.4684 162.778 68.1317C162.265 65.6218 159.438 63.4513 157.148 64.6004C155.541 59.9958 152.984 55.7251 149.683 52.1344L140.511 56.4587C139.329 54.6888 138.606 52.616 138.429 50.4952C132.373 53.9562 125.799 56.5104 118.995 58.0466L119.692 52.8517L99.3589 63.4127C96.3567 49.4181 104.213 34.4031 116.436 26.9554C128.658 19.5077 144.292 18.9975 157.905 23.4203C157.471 10.2702 170.807 -1.01396 183.919 0.0724773ZM283.948 228.167C272.234 230.994 260.863 235.238 250.162 240.777L249.388 241.181C243.458 244.305 237.638 248.048 233.921 253.603C236.431 253.168 239.111 253.822 241.138 255.365C242.418 256.339 243.488 257.8 243.412 259.408C243.372 260.241 243.026 261.036 242.56 261.727C240.736 264.428 236.876 265.525 233.904 264.186C230.933 262.847 229.198 259.228 230.014 256.073C217.408 260.377 206.571 269.637 200.341 281.409L200.133 281.806C199.826 282.399 199.451 283.062 198.8 283.209C197.905 283.412 197.108 282.413 197.149 281.496C197.19 280.579 197.777 279.789 198.345 279.068C205.691 269.741 214.276 260.862 225.262 256.36L226.09 256.027C228.681 254.999 231.394 253.99 233.068 251.797C237.127 246.48 242.971 242.829 248.905 239.739C254.216 236.974 259.71 234.56 265.339 232.519C270.987 230.47 276.763 228.799 282.551 227.179L302.158 221.72C296.855 225.447 290.249 226.646 283.948 228.167ZM34.3364 252.106C23.6781 255.661 13.2131 259.795 3.00292 264.483C2.40396 264.759 2.33544 265.648 2.702 266.196C3.06855 266.743 3.70832 267.03 4.31425 267.289L22.9652 275.271C25.794 276.482 28.632 277.696 31.5903 278.542C39.8405 280.903 48.7307 280.327 56.9336 282.847C57.9286 283.153 58.9966 282.837 59.9873 282.518C67.1417 280.213 74.212 277.648 81.1793 274.828C88.4685 271.878 95.692 268.623 102.164 264.156C102.753 263.75 103.364 263.298 103.632 262.635C103.901 261.972 103.653 261.05 102.965 260.854C98.5975 259.614 94.2932 258.151 90.0743 256.472L89.7816 256.353C88.5063 255.819 87.1707 255.061 86.9035 253.732C83.1869 253.882 79.9368 256.226 77.1954 258.74C74.454 261.254 71.8787 264.093 68.5008 265.65C65.1228 267.208 60.5891 267.073 58.249 264.182L58.0979 263.993C57.8934 263.741 57.6713 263.498 57.3638 263.417C56.9795 263.317 56.4859 263.7 56.6649 264.054C57.1289 264.973 56.1324 266.134 55.1054 266.07C54.0783 266.006 53.2754 265.071 53.0226 264.073C52.8601 263.432 52.8743 262.769 52.952 262.108L52.9716 261.946C52.515 263.563 51.0835 264.905 49.4088 265.154C47.4201 265.451 45.3102 264.175 44.6496 262.276C44.1052 260.71 41.9707 260.683 40.3396 260.39C36.631 259.724 33.8148 255.838 34.3364 252.106ZM59.5242 189.82C57.3272 193.729 59.3679 198.674 62.074 202.248C70.5599 213.457 84.7732 218.836 94.4711 229.015C96.9078 231.572 99.0318 234.406 101.129 237.25L107.719 246.201C108.931 247.846 110.146 249.496 111.56 250.971C115.245 254.817 120.098 257.299 124.898 259.608C134.638 264.295 144.657 268.601 155.231 270.838C165.805 273.075 177.04 273.152 187.214 269.504C196.737 266.089 204.942 259.541 211.317 251.686C217.54 244.018 222.108 235.13 225.769 225.955L226.035 225.283C226.562 223.945 227.08 222.545 226.97 221.111C226.855 219.595 226.047 218.216 225.104 217.023C221.508 212.474 215.499 209.901 209.744 210.612C204.08 211.312 198.893 215.242 196.818 220.554L196.721 220.808C192.212 233.033 180.982 242.227 168.368 245.489C155.753 248.752 142.032 246.414 130.518 240.315C119.004 234.216 109.608 224.562 102.603 213.576L102.22 212.969C100.955 210.938 99.8044 208.801 99.3588 206.457C98.8688 203.879 99.367 200.98 101.229 199.131C102.458 197.91 104.208 197.193 105.103 195.708C105.997 194.223 104.947 191.601 103.297 192.131L102.196 192.48C94.612 194.84 85.8132 196.67 79.7117 191.76L79.1254 191.291C76.2787 189.028 73.2365 186.869 69.6998 186.091C65.9191 185.259 61.4212 186.446 59.5242 189.82ZM89.7558 229.436C80.5569 235.248 70.1755 239.18 59.4342 240.92C58.0161 241.15 57.635 242.988 57.6127 244.425C57.5418 248.99 57.7628 253.56 58.2741 258.097C59.4376 257.549 59.9135 256.181 60.7067 255.169C61.5 254.156 63.3102 253.602 63.9233 254.732C64.3516 255.522 63.7799 256.511 63.0501 257.035C62.3202 257.558 61.4225 257.842 60.7716 258.461C59.1522 260.001 59.9987 263.03 61.9717 264.079C63.9446 265.129 66.4403 264.581 68.3319 263.391C70.2235 262.201 71.6849 260.456 73.2888 258.9C76.7191 255.571 80.9149 253.036 85.4571 251.549C91.2235 249.66 97.6445 249.379 102.718 246.05C103.059 245.826 103.413 245.563 103.542 245.175C103.718 244.645 103.42 244.095 103.104 243.624L97.0342 234.81C96.0673 233.407 94.9547 231.899 93.2981 231.497C92.5407 231.313 91.7331 231.384 90.9898 231.15C90.2465 230.915 89.5462 230.187 89.7558 229.436ZM47.3789 242.239C45.0124 243.344 43.6119 245.942 43.3002 248.535C42.9885 251.128 43.6006 253.739 44.3275 256.247C44.7738 257.787 45.2686 259.322 46.0067 260.745C46.4773 261.653 47.1004 262.558 48.0435 262.953C48.9865 263.347 50.2953 262.992 50.6018 262.017C50.7281 261.615 50.6715 261.181 50.5984 260.766C50.3238 259.208 49.831 257.688 49.1395 256.264L48.8491 255.687C48.4331 254.855 48.0413 253.873 48.5762 253.147C49.0869 252.453 50.3422 252.166 50.2222 251.313L49.0502 242.982C49.016 242.739 48.9757 242.481 48.8176 242.293C48.4847 241.897 47.8478 242.02 47.3789 242.239ZM235.003 255.089C234.221 255.085 233.399 255.193 232.772 255.659C232.405 255.932 232.127 256.313 231.932 256.726C231.107 258.475 231.868 260.722 233.431 261.861C234.993 262.999 237.158 263.106 238.967 262.424C240.35 261.902 241.681 260.721 241.635 259.243C241.598 258.077 240.713 257.104 239.737 256.465C238.343 255.553 236.669 255.096 235.003 255.089ZM51.8192 218.63C51.6192 218.778 51.5203 219.024 51.4358 219.258C50.2052 222.673 50.0545 226.374 50.0885 230.003C50.1736 239.103 51.3427 248.192 53.563 257.017L53.6734 257.446C54.1273 259.169 54.7477 260.937 56.1533 262.002C56.4148 248.018 55.5074 234.011 53.4438 220.177C53.3098 219.279 52.5478 218.088 51.8192 218.63ZM40.7371 248.689C40.4434 248.772 40.2547 249.052 40.1081 249.319C38.9081 251.509 38.827 254.276 39.8969 256.532C40.3766 257.543 41.199 258.527 42.3117 258.651C42.7653 258.086 42.5579 257.272 42.3038 256.58L42.0843 255.995C41.2677 253.781 40.5974 251.385 41.3172 249.16C41.4111 248.87 41.0309 248.607 40.7371 248.689ZM36.7338 251.723C35.8922 253.594 36.2671 255.948 37.6483 257.465C38.2184 256.882 37.9676 255.927 37.7729 255.135C37.4682 253.896 37.3994 252.6 37.5713 251.336C37.359 251.024 36.8884 251.379 36.7338 251.723ZM54.4719 185.039C55.7476 186.138 56.5587 188.509 55.0437 189.243C54.073 189.714 52.9732 189.026 52.0566 188.457C47.294 185.502 41.2044 185.284 35.8049 186.788C30.4054 188.291 25.5782 191.353 21.0477 194.653C16.536 197.939 12.1857 201.545 8.79318 205.977C5.40068 210.409 3.00109 215.75 2.80418 221.328C2.56822 228.012 5.45591 234.402 8.79506 240.197C10.9233 243.891 13.3232 247.532 16.6268 250.214L17.306 250.751C18.2432 251.503 19.2055 252.436 18.9665 253.568C15.7283 253.421 13.3779 250.524 11.5946 247.818C9.05883 243.968 6.74731 239.972 4.67574 235.854C2.95321 232.43 1.37872 228.863 0.855407 225.066C-0.128803 217.925 2.77029 210.665 7.2764 205.038C11.7825 199.412 17.7794 195.19 23.8448 191.296C28.4521 188.337 33.1936 185.5 38.3655 183.703C43.6991 181.849 50.1936 181.354 54.4719 185.039ZM191.349 153.588C183.68 160.747 173.485 165.145 163.014 165.811C158.387 166.106 153.608 165.663 149.421 163.671C145.234 161.679 141.707 157.964 140.734 153.431L140.386 153.538C137.356 154.497 133.886 156.232 133.916 159.355C134.046 172.601 133.737 185.852 132.992 199.078C132.849 201.616 131.883 204.948 129.342 204.873C120.315 204.608 111.228 206.692 103.219 210.865C112.234 225.003 125.054 237.363 141.001 242.541C156.948 247.719 176.182 244.483 187.357 231.983C190.939 227.977 193.575 223.24 196.114 218.494L196.698 217.4C197.238 216.387 197.788 215.185 197.308 214.143C197.001 213.477 197.662 212.786 198.269 212.376C207.186 206.34 220.463 207.978 227.647 215.999C227.078 214.886 227.595 213.351 228.723 212.81C229.618 214.249 229.808 216.107 229.222 217.698C229.61 218.247 230.322 217.364 230.384 216.694C231.341 206.267 231.266 195.745 230.16 185.333C229.76 181.579 229.218 177.801 227.875 174.273C226.697 171.178 224.927 168.342 222.987 165.659C218.524 159.486 213.098 154.01 206.966 149.491L206.521 149.167C205.548 148.471 204.525 147.829 203.376 147.516C198.829 146.278 194.794 150.372 191.349 153.588ZM129.392 147.59C124.322 149.296 118.832 148.968 113.495 149.337C105.974 149.857 98.5554 151.812 91.7559 155.068C88.8274 156.47 85.9944 158.118 82.8974 159.093C76.32 161.164 68.7801 159.885 63.2537 155.761C62.0624 164.856 62.4138 174.151 64.2885 183.131C64.4089 183.707 64.7887 184.445 65.3519 184.272C69.0896 183.124 73.1096 184.748 76.4328 186.808C79.7561 188.868 82.8793 191.437 86.654 192.456C91.082 193.652 95.7747 192.547 100.158 191.157L100.486 191.053C102.732 190.331 105.638 189.73 107.079 191.599C108.294 193.175 107.527 195.529 106.24 197.048C104.954 198.566 103.209 199.695 102.16 201.386C100.871 203.462 100.864 206.267 102.143 208.349C110.514 204.992 119.473 203.109 128.487 202.812C130.294 202.752 130.929 200.413 131.04 198.607C132.013 182.789 132.312 166.929 131.935 151.085C131.895 149.396 130.993 147.051 129.392 147.59ZM264.915 190.365L265.274 190.545C267.493 191.673 269.856 193.176 270.187 195.607C270.296 196.407 270.158 197.221 269.968 198.006C269.705 199.093 269.303 200.208 268.458 200.941C267.563 201.717 266.304 201.938 265.119 201.892C262.786 201.801 260.45 200.714 259.099 198.81C257.748 196.906 257.53 194.183 258.791 192.217C260.052 190.252 262.823 189.328 264.915 190.365ZM261.455 193.084C260.072 193.661 259.574 195.532 260.151 196.915C260.728 198.297 262.099 199.208 263.523 199.674C264.98 200.151 266.856 200.112 267.724 198.849C268.013 198.428 268.15 197.922 268.23 197.418C268.403 196.32 268.298 195.106 267.591 194.249C266.716 193.187 265.222 192.974 263.826 192.895L263.479 192.878C262.796 192.847 262.086 192.821 261.455 193.084ZM86.8582 164.493C87.0331 165.157 86.8986 165.858 86.7791 166.534C85.9373 171.296 85.8764 176.195 86.5979 180.976L86.7312 181.822C86.8191 182.421 86.855 183.053 86.5112 183.535C86.1144 184.09 85.0024 184.034 84.9468 183.354C84.4733 177.56 84.1698 171.753 84.037 165.942C84.0116 164.832 84.3014 163.356 85.4084 163.27C86.0929 163.218 86.6833 163.829 86.8582 164.493ZM47.8999 152.883C48.7186 153.13 49.5051 153.69 49.7424 154.512C49.9796 155.333 49.4396 156.371 48.5863 156.425C47.7911 156.475 47.1842 155.751 46.4535 155.433C45.1417 154.862 43.67 155.659 42.464 156.429L41.8501 156.825C40.6923 157.588 39.5708 158.443 38.935 159.659C38.2846 160.903 38.2301 162.364 38.2502 163.768C38.2642 164.743 38.3099 165.733 38.6116 166.661C39.266 168.674 41.1333 170.182 43.2046 170.619C45.2758 171.055 47.4911 170.49 49.2432 169.302L49.5862 169.069C49.8956 168.865 50.2199 168.687 50.5839 168.67C51.0843 168.646 51.6321 169.117 51.462 169.589C51.411 169.73 51.3062 169.844 51.2014 169.952C48.3375 172.894 43.3921 173.524 39.8822 171.393C39.2561 171.013 38.6724 170.555 38.1992 169.996C36.7769 168.315 36.5115 165.96 36.4724 163.759C36.4513 162.568 36.4807 161.359 36.8193 160.216C37.5508 157.748 39.6181 155.915 41.7667 154.498C43.5911 153.294 45.8069 152.254 47.8999 152.883ZM31.3303 147.82L38.4702 156.299C38.0774 156.724 37.389 156.752 36.8583 156.521C36.3866 156.316 36.0104 155.949 35.6559 155.572L31.4667 151.067C30.8956 155.64 29.5119 160.11 27.3999 164.206C27.1944 164.605 27.7768 164.941 28.223 164.987C29.3126 165.099 30.4144 164.974 31.4889 164.762L32.0426 164.65C32.9103 164.477 33.8001 164.342 34.609 164.663C35.5912 165.052 36.1973 166.481 35.4097 167.185C34.9242 167.619 34.1887 167.565 33.5424 167.485L26.5888 166.625L26.3751 166.595C25.6886 166.482 24.9341 166.213 24.8335 165.552C24.7728 165.153 24.9943 164.772 25.2017 164.426C27.6767 160.295 29.3256 155.672 30.0256 150.908L30.1311 150.152C30.2671 149.225 30.5079 148.219 31.3303 147.82ZM274.588 161.141C275.45 161.751 276.263 162.948 275.595 163.766C275.177 164.277 274.372 164.29 273.772 164.015C273.171 163.739 272.705 163.246 272.186 162.836C270.062 161.157 266.871 160.98 264.574 162.414C264.247 162.618 263.921 162.872 263.789 163.234C263.656 163.596 263.803 164.082 264.172 164.191C267.105 162.949 270.601 163.123 273.396 164.65C273.799 164.871 274.224 165.164 274.323 165.614C274.422 166.063 273.94 166.602 273.538 166.377C271.714 165.356 269.538 164.981 267.477 165.331C266.517 165.495 265.577 165.811 264.603 165.841C263.63 165.872 262.564 165.547 262.047 164.721C261.57 163.959 261.684 162.931 262.149 162.161C262.614 161.392 263.376 160.847 264.174 160.432C267.42 158.742 271.601 159.027 274.588 161.141ZM177.312 119.92C170.35 125.772 162.169 130.167 153.446 132.744L152.864 132.913C151.732 133.236 150.307 133.953 150.545 135.106L150.692 135.822C151.127 137.974 151.496 140.165 151.185 142.33C150.851 144.665 149.563 147.002 147.433 147.983L147.237 148.069C143.444 149.63 142.911 155.296 145.399 158.558C147.886 161.819 152.199 163.082 156.274 163.553C168.233 164.936 180.712 160.927 189.628 152.837C192.861 149.903 195.755 146.391 199.758 144.648L189.747 140.983C187.046 139.994 184.31 138.988 181.959 137.331C179.608 135.674 177.648 133.262 177.167 130.426C176.578 126.953 178.244 123.317 177.312 119.92ZM61.8257 129.31C61.5744 129.422 61.3179 129.57 61.197 129.817C61.0761 130.065 61.1169 130.357 61.1596 130.629L63.4534 145.088C64.1294 149.349 65.079 154.071 68.5933 156.573C72.4428 159.315 77.7292 158.241 82.2119 156.676L82.4513 156.591C90.7957 153.628 98.8263 149.502 107.572 148.114C113.851 147.117 120.436 147.544 126.373 145.271C124.201 141.993 119.496 142.01 115.56 142.44L83.4056 146.095C80.9146 146.378 78.2981 146.708 76.2751 148.189C75.3899 148.837 74.5518 149.727 73.4558 149.772C72.3893 149.816 71.4624 148.263 72.2982 147.692L72.372 147.647C73.2885 147.142 73.2268 145.827 73.0393 144.797L72.0667 139.465C71.575 136.82 70.9745 134.128 69.392 131.969C67.6829 129.637 64.4679 128.136 61.8257 129.31ZM283.811 150.922C284.586 151.824 284.619 153.21 284.103 154.282C283.586 155.354 282.607 156.142 281.548 156.685C280.271 157.34 278.865 157.682 277.455 157.974L276.75 158.117C276.474 158.173 276.183 158.227 275.916 158.138C275.694 158.064 275.514 157.898 275.368 157.715C274.641 156.803 274.666 155.458 275.158 154.4C275.65 153.343 276.531 152.521 277.435 151.785C278.36 151.033 279.366 150.325 280.526 150.05C281.686 149.775 283.035 150.017 283.811 150.922ZM280.009 152.508L279.638 152.758C279.083 153.138 278.548 153.553 278.175 154.108C277.719 154.785 277.561 155.73 278.011 156.412L280.993 154.752C281.479 154.482 281.982 154.196 282.298 153.738C282.613 153.281 282.676 152.597 282.286 152.201C281.701 151.606 280.704 152.046 280.009 152.508ZM232.433 119.867C232.641 119.951 232.782 120.14 232.903 120.332L237.273 127.469C238.054 128.745 239.83 128.887 241.322 128.782C244.181 128.58 247.013 127.997 249.718 127.052C250.172 126.893 250.603 127.471 250.505 127.941C250.407 128.412 250.002 128.747 249.623 129.043L243.061 134.158C242.255 134.101 242.483 132.782 243.137 132.307L243.33 132.172C243.96 131.747 244.724 131.327 244.685 130.597L240.892 131.782C240.168 132.008 239.363 132.231 238.674 131.913C238.216 131.702 237.896 131.287 237.606 130.869L232.787 123.836L232.704 129.995C232.697 130.5 232.676 131.048 232.355 131.438C232.127 131.715 231.787 131.864 231.447 131.989L224.799 134.375C226.574 136.15 229.898 134.282 232.022 135.62C233.478 136.537 233.726 138.579 233.412 140.27C233.098 141.962 232.379 143.607 232.472 145.325C233.685 144.445 234.576 143.13 234.944 141.677C235.093 141.092 235.166 140.468 235.492 139.96C236.39 138.557 238.536 138.843 240.022 139.593C241.509 140.343 243.052 141.422 244.679 141.066L242.319 137.292C242.103 136.948 241.88 136.575 241.899 136.17C241.918 135.764 242.303 135.354 242.692 135.472C242.862 135.523 242.989 135.658 243.102 135.799L248.367 142.624C246.518 143.843 244.078 143.075 241.943 142.487L241.626 142.404C239.543 141.889 237.001 141.837 235.851 143.603C235.04 144.847 234.089 145.999 233.021 147.031C232.571 147.465 232.058 147.898 231.436 147.969C230.815 148.04 230.1 147.569 230.156 146.946L230.768 140.045C230.807 139.598 230.837 139.111 230.588 138.738C230.326 138.345 229.832 138.193 229.376 138.067L223.625 136.478C222.374 136.133 222.365 134.186 223.303 133.29C224.241 132.394 225.623 132.206 226.873 131.859C228.123 131.512 229.475 130.776 229.7 129.499L231.16 121.23C231.285 120.524 231.768 119.598 232.433 119.867ZM77.6781 3.29315L76.6159 4.15638C69.5381 9.92422 62.5636 15.971 57.3727 23.4688C51.9222 31.3414 48.5761 41.1037 50.1988 50.5405C52.5634 64.2923 64.864 75.244 65.3899 89.1877C65.4597 91.0399 67.3459 92.1926 68.9238 93.1651C75.1513 97.0029 79.766 103.094 82.8111 109.745C85.7611 116.188 87.336 123.17 88.4812 130.167L88.5907 130.845C88.7613 131.912 88.8859 133.126 88.1975 133.959C87.5092 134.792 85.7394 134.5 85.8081 133.422C86.6159 120.744 82.0083 107.81 73.3668 98.4983C71.122 96.0793 68.5143 93.837 65.3531 92.8899C65.1518 97.7731 63.5076 102.749 60.0271 106.181C56.5466 109.612 51.0559 111.179 46.5501 109.286C42.0443 107.392 39.2878 101.675 41.3157 97.2285C43.0144 93.5033 47.2332 91.6214 51.2499 90.8283C55.1911 90.0501 59.2766 90.0096 63.2324 90.7093C63.7647 90.8035 63.9966 90.0594 63.9859 89.519C63.6999 75.0255 50.3026 63.6783 48.544 49.289C47.5829 41.4252 50.266 33.5091 54.1598 26.6098C59.2733 17.5493 66.5477 9.71798 75.207 3.95117L75.4337 3.80409C76.1272 3.36748 76.9358 2.9951 77.6781 3.29315ZM121.79 77.1118C119.851 78.3588 119.901 81.1262 119.741 83.4257C119.521 86.5799 118.436 89.737 116.321 92.0873C114.206 94.4377 110.993 95.8814 107.856 95.4869C107.044 95.3848 106.797 96.5591 106.904 97.3702C108.727 111.271 117.16 124.919 130.267 129.896C138.279 132.939 147.33 132.535 155.499 129.941C163.474 127.409 170.692 122.906 177.289 117.751L177.77 117.373C178.727 116.618 179.688 115.83 180.353 114.809C181.027 113.773 181.359 112.547 181.521 111.321C182.386 104.755 177.999 97.8849 171.677 95.9086C170.933 95.6761 171.106 94.4692 171.758 94.0432C172.411 93.6173 173.252 93.6461 173.997 93.4184C176.016 92.8013 176.945 90.5014 177.406 88.4408C178.04 85.6095 178.217 82.3807 176.463 80.0701C174.091 76.9476 169.481 76.9516 165.571 77.2509L159.228 77.7365C157.038 77.904 154.22 78.6757 154.117 80.8691C153.896 85.5932 151.815 90.299 148.138 93.2736C144.462 96.2482 139.167 97.2766 134.802 95.4558C130.507 93.6638 127.472 88.9878 127.969 84.3712L127.995 84.1479C128.254 82.195 128.112 80.0744 126.968 78.4708C125.823 76.8671 123.447 76.0461 121.79 77.1118ZM174.185 3.2902C171.356 4.09434 168.639 5.39135 166.406 7.30482C163.285 9.97895 161.21 13.8432 160.705 17.9219C160.526 19.367 160.814 21.2309 162.217 21.6191C165.646 22.5676 168.714 24.7669 170.713 27.7095C167.471 25.7807 163.918 24.3773 160.233 23.5704L175.807 32.3828C176.71 32.8936 177.647 33.4361 178.215 34.3042C178.783 35.1723 178.842 36.4679 178.062 37.1517L176.973 36.3044C174.245 34.1927 171.456 32.1456 168.402 30.5475C166.08 29.3323 163.629 28.3894 161.165 27.4913L159.82 27.0044C155.258 25.3587 150.655 23.7025 145.85 23.0449C141.391 22.4346 136.812 22.7056 132.456 23.8377L131.596 24.0579C125.711 25.5471 119.575 26.7648 114.71 30.363C111.815 32.5034 109.549 35.3687 107.397 38.2543L106.889 38.943C102.613 44.8136 98.7062 52.0513 101.208 58.7868C112.693 57.372 121.641 48.4854 132.046 43.4197C132.841 43.0325 134.153 42.914 134.274 43.7902L122.631 50.6703C122.954 52.4469 122.649 54.3315 121.781 55.915C130.287 53.5114 138.24 49.1712 144.866 43.3208L145.287 42.9454C146.338 41.9991 148.363 41.2163 148.811 42.5577L148.241 42.8759C146.152 44.0512 144.073 45.3367 142.633 47.2399C141.062 49.316 140.436 52.3342 141.829 54.5341L156.527 45.8801C157.124 45.5286 157.775 45.1644 158.464 45.2368C159.153 45.3091 159.799 46.0512 159.501 46.6769L159.002 46.7811C157.415 47.1181 155.806 47.5404 154.571 48.5738C153.206 49.716 152.499 51.8573 153.513 53.32C155.333 55.9436 156.81 58.8048 157.894 61.8081C157.918 60.4948 159.708 59.8232 160.888 60.3998C162.068 60.9764 162.692 62.2777 163.12 63.5196C164.343 67.0723 164.666 70.9309 164.051 74.6375C167.747 75.9426 172.082 74.401 175.637 76.0518C178.937 77.5841 180.551 81.5585 180.322 85.1894C180.093 88.8204 178.377 92.1777 176.545 95.321C181.665 99.2882 184.401 106.122 183.432 112.527C184.325 112.381 185.079 111.61 185.206 110.715L187.237 111.996C184.06 113.792 181.8 117.123 181.307 120.739C195.263 107.679 199.896 86.9809 197.883 67.9739L197.804 67.265C197.006 60.4014 195.107 53.2469 189.946 48.7005C192.713 47.105 196.262 47.7325 199.223 46.5344C202.021 45.4024 203.944 42.7785 205.243 40.054C209.585 30.9458 208.089 19.3571 201.578 11.6493C195.066 3.9414 183.89 0.531036 174.185 3.2902ZM128.562 117.518C129.002 117.591 129.501 117.74 129.674 118.151C129.949 118.809 129.177 119.409 128.51 119.658C127.54 120.019 126.523 120.25 125.493 120.344C124.628 120.422 123.538 120.255 123.27 119.429C123.095 118.886 123.4 118.276 123.862 117.941C124.324 117.606 124.908 117.493 125.476 117.432C126.502 117.321 127.543 117.35 128.562 117.518ZM112.774 108.099C115.812 111.669 120.563 113.559 125.249 113.596C129.936 113.633 134.534 111.938 138.425 109.326L138.752 109.106C139.246 108.777 139.759 108.469 140.338 108.368C141.047 108.245 141.889 108.542 142.13 109.22C138.06 112.676 132.959 114.959 127.642 115.441C122.324 115.924 116.817 114.559 112.478 111.448C111.695 110.886 110.886 110.148 110.853 109.185C110.821 108.222 112.15 107.366 112.774 108.099ZM49.1134 92.9806C47.0015 93.6544 44.8761 94.6417 43.5437 96.4134C41.5645 99.0452 41.9106 103.038 44.0483 105.543C46.186 108.048 49.8008 109.048 53.0258 108.382C56.2508 107.717 59.0507 105.541 60.8629 102.791C62.6752 100.042 63.5625 96.7595 63.8313 93.4775C63.8764 92.9273 63.7764 92.199 63.2337 92.098C58.5501 91.2266 53.6521 91.5327 49.1134 92.9806ZM123.95 80.1564C124.038 80.9134 123.745 81.6561 123.476 82.3691C121.955 86.3976 121.029 90.6503 120.738 94.9466C120.691 95.6425 120.664 96.3642 120.919 97.0134C121.16 97.6265 121.719 98.1598 122.368 98.1964L122.483 98.1976C123.074 98.1767 123.354 99.0568 122.983 99.5163C122.611 99.9758 121.914 100.027 121.348 99.8587C120.185 99.5126 119.352 98.4304 119.015 97.2652C118.677 96.1 118.763 94.8559 118.932 93.6546C119.505 89.5818 120.992 85.633 121.065 81.5207C121.085 80.3603 121.323 78.796 122.48 78.7037C123.239 78.643 123.862 79.3995 123.95 80.1564ZM138.402 66.411C135.987 66.9079 134.143 68.8893 132.89 71.0134C130.324 75.3649 129.593 80.7603 130.908 85.6378C131.499 87.8279 132.509 89.9445 134.093 91.5679C135.677 93.1913 137.878 94.281 140.146 94.2435C141.729 94.2172 143.266 93.6554 144.641 92.8708C149.233 90.2508 152.151 84.941 151.9 79.6599C151.649 74.3788 148.241 69.3695 143.421 67.1968C141.851 66.4892 140.088 66.064 138.402 66.411ZM105.067 64.2458C100.752 65.8446 97.9658 70.3263 97.3721 74.89C96.7783 79.4537 98.0584 84.0702 99.883 88.2952C100.374 89.433 100.933 90.5899 101.877 91.3936C102.82 92.1974 104.248 92.5577 105.32 91.9356C105.82 91.6461 106.286 92.3232 106.664 92.7585C107.419 93.6257 108.746 93.6997 109.873 93.4744C113.587 92.7323 116.441 89.4871 117.596 85.8805C118.713 82.3941 118.475 78.6204 117.815 75.0128L117.745 74.6402C117.049 71.0018 115.477 66.9129 111.935 65.8295C110.077 65.2614 107.837 65.5934 106.401 64.2853C106.054 63.9695 105.507 64.0829 105.067 64.2458ZM173.648 79.6725C175.108 81.2899 174.51 83.8016 173.78 85.8769L173.721 86.0442C173.429 86.858 173.126 87.6911 172.567 88.351C172.009 89.011 171.131 89.4719 170.285 89.2957C169.438 89.1195 168.778 88.1378 169.134 87.3497C169.575 86.3714 171.076 86.3216 171.617 85.3949L170.154 85.2568C169.169 85.1638 168.108 85.0387 167.378 84.3704C166.649 83.7022 166.557 82.288 167.444 81.8501C168.06 81.5466 168.8 81.844 169.37 82.2266C169.939 82.6091 170.484 83.0934 171.161 83.1976C171.839 83.3018 172.664 82.7693 172.524 82.0978C172.33 81.1631 172.809 80.1283 173.648 79.6725ZM140.259 85.9865C140.375 86.6295 140.417 87.3116 140.177 87.919C139.936 88.5264 139.349 89.0346 138.697 89.0074C137.686 88.9653 137.144 87.801 136.968 86.8047C136.749 85.5737 137.09 83.8795 138.337 83.7879C139.404 83.7095 140.07 84.9335 140.259 85.9865ZM109.11 83.3734C109.614 84.1073 109.543 85.0878 109.343 85.9551C109.087 87.0648 108.443 88.3029 107.31 88.4188C106.287 88.5234 105.414 87.608 105.079 86.6356C104.671 85.4489 104.869 83.9991 105.796 83.1526C106.722 82.3061 108.4 82.3386 109.11 83.3734ZM110.053 70.8493C110.506 71.0571 110.824 71.6268 110.595 72.0688L110.158 72.1835C107.668 72.8479 105.014 73.7725 103.825 76.0235C103.54 76.563 103.355 77.1583 103 77.6546C102.646 78.1509 102.047 78.5453 101.45 78.4196C100.77 78.2764 100.376 77.4933 100.449 76.8018C100.521 76.1103 100.942 75.5075 101.393 74.978C103.226 72.8246 105.808 71.3224 108.586 70.794C109.075 70.701 109.601 70.6414 110.053 70.8493ZM141.873 72.0925C142.617 72.6924 143.183 73.4919 143.935 74.0819C144.571 74.5804 145.374 74.9746 145.663 75.729C145.952 76.4834 145.083 77.5488 144.453 77.0437C142.807 75.7248 140.98 74.6323 139.039 73.8064C138.159 73.432 138.359 71.9517 139.217 71.5302C140.076 71.1088 141.128 71.4926 141.873 72.0925ZM132.652 67.3616C131.03 67.8964 129.877 69.6035 129.987 71.3079C130.607 70.9904 131.08 70.3971 131.251 69.7214L131.227 69.6531C131.947 69.0842 132.46 68.259 132.652 67.3616Z" fill="#00160A"/>
<path fill-rule="evenodd" clip-rule="evenodd" d="M41.2454 271.644C41.898 271.65 42.4982 271.952 43.0684 272.285L43.3765 272.468C46.8715 274.561 50.5594 276.33 54.3781 277.748C54.9029 277.943 54.74 278.824 54.2284 279.051C53.7169 279.279 53.1266 279.076 52.6049 278.873L41.3271 274.485C40.6054 274.204 39.7677 273.776 39.7044 273.004C39.6414 272.236 40.4741 271.638 41.2454 271.644Z" fill="#E7EAEE"/>
<path fill-rule="evenodd" clip-rule="evenodd" d="M23.2664 259.357L58.1544 271.733L58.3736 271.815C59.2957 272.175 60.293 272.792 60.1945 273.744C60.1142 274.52 59.2556 275.02 58.4761 274.994C57.8164 274.972 57.2071 274.679 56.6243 274.356L56.3088 274.179C51.4443 271.42 46.3405 269.144 41.1062 267.177C35.1768 264.949 29.0798 263.119 22.973 261.434C22.0392 261.176 20.8557 260.342 21.3912 259.535C21.7668 258.968 22.626 259.13 23.2664 259.357Z" fill="#E7EAEE"/>
</svg>
