<svg width="320" height="236" viewBox="0 0 320 236" fill="none" xmlns="http://www.w3.org/2000/svg">
<path fill-rule="evenodd" clip-rule="evenodd" d="M34.8063 209.767C58.9503 236.048 152.317 220.952 213.794 220.952C240.315 220.952 329.318 234.244 292.565 142.956C172.058 -156.362 -41.6942 126.493 34.8063 209.767Z" fill="#FFB61D"/>
<path fill-rule="evenodd" clip-rule="evenodd" d="M141.633 211.881C141.75 211.791 141.873 211.693 141.924 211.554C142.088 211.109 141.445 210.813 140.971 210.824C140.283 210.84 139.4 211.303 139.611 211.959C139.733 212.338 140.2 212.513 140.592 212.444C140.984 212.374 141.317 212.124 141.633 211.881ZM143.679 204.077C144.198 204.24 144.711 204.441 145.164 204.744C146.014 205.313 146.592 206.197 147.147 207.056C147.545 207.672 147.948 208.299 148.147 209.005C148.362 209.77 148.323 210.586 148.179 211.367C147.731 213.799 146.229 216.019 144.139 217.341C142.048 218.663 139.399 219.067 137.009 218.43C136.544 218.306 136.075 218.136 135.717 217.814C135.416 217.543 135.214 217.183 135.028 216.823C134.055 214.936 133.399 212.839 133.474 210.717C133.549 208.594 134.421 206.446 136.074 205.112C138.147 203.438 141.136 203.279 143.679 204.077" fill="white"/>
<path fill-rule="evenodd" clip-rule="evenodd" d="M253.438 88.6155C252.299 88.6012 251.23 89.5567 251.117 90.6907C251.071 91.1542 251.268 91.7302 251.729 91.7941C252.075 91.842 252.378 91.5749 252.61 91.3145C253.102 90.7636 253.524 90.151 253.864 89.4955C253.978 89.2756 254.078 88.9934 253.928 88.7961C253.819 88.6524 253.619 88.6178 253.438 88.6155ZM252.945 83.5306C254.563 84.0952 256.03 85.0882 257.155 86.381C258.122 87.4921 258.858 88.9346 258.655 90.3934C258.58 90.929 258.383 91.4397 258.157 91.9312C257.304 93.7929 255.836 95.577 253.82 95.9375C252.762 96.1266 251.672 95.9 250.655 95.554C249.479 95.1538 248.357 94.5925 247.332 93.8907C246.788 93.5184 246.248 93.0766 246.009 92.4622C245.845 92.0387 245.84 91.5723 245.846 91.1181C245.862 89.9948 245.936 88.8526 246.328 87.7996C246.823 86.4674 247.793 85.3677 248.821 84.3862C249.234 83.9915 249.673 83.6026 250.204 83.3911C251.072 83.0449 252.062 83.2225 252.945 83.5306Z" fill="white"/>
<path fill-rule="evenodd" clip-rule="evenodd" d="M253.44 2.48666C260.135 9.3915 265.42 17.6481 268.879 26.6084C269.117 27.2239 269.347 27.9075 269.121 28.527C267.375 33.2969 264.007 37.2735 260.705 41.1401C258.595 43.6109 256.485 46.0816 254.374 48.5524C252.36 50.9111 250.345 53.2702 248.262 55.5695C237.659 67.2769 225.13 77.5141 210.619 83.8129C210.071 84.0506 209.484 84.2877 208.894 84.1927C208.305 84.0977 207.752 83.5273 207.906 82.9524C209.7 76.2716 211.506 69.2867 210.066 62.5212C209.719 60.8893 209.332 58.8346 210.686 57.8526C221.645 49.9024 229.535 38.5386 237.097 27.329C238.999 24.5105 240.895 21.6841 242.578 18.7306C245.565 13.4869 247.866 7.85539 249.403 2.02375C249.614 1.2235 250.628 0.863143 251.432 1.07286C252.235 1.28258 252.863 1.89157 253.44 2.48666" fill="white"/>
<path fill-rule="evenodd" clip-rule="evenodd" d="M44.6367 29.3111C45.7252 39.152 48.7549 48.7743 53.5008 57.4636C56.4392 62.8437 60.0134 67.8461 63.578 72.8334C66.0585 76.3039 68.711 79.9206 72.5814 81.7142C73.6104 82.1911 73.4669 83.6748 73.1907 84.7748C71.9969 89.5298 71.4398 94.4443 71.5392 99.3459C71.5485 99.8089 71.5607 100.289 71.3788 100.715C70.7611 102.161 68.645 101.92 67.1881 101.328C58.174 97.6693 51.2535 90.3105 44.7886 83.0408C36.395 73.6022 28.1262 63.7491 23.1677 52.1321C22.8307 51.3423 22.5035 50.5112 22.5599 49.6544C22.6174 48.7813 23.0659 47.9877 23.5209 47.2404C28.0159 39.8574 34.2694 33.5531 41.6156 28.9984C42.1331 28.6776 42.6856 28.3561 43.294 28.335C43.9024 28.314 44.5697 28.706 44.6367 29.3111Z" fill="white"/>
<path fill-rule="evenodd" clip-rule="evenodd" d="M252.126 201.947C252.903 200.63 253.866 199.181 255.374 198.931C255.968 198.833 256.281 198.187 256.484 197.619C258.976 190.627 259.217 182.852 257.16 175.72C256.574 173.684 257.296 171.526 258.011 169.532C259.856 164.385 261.701 159.238 263.546 154.091C262.489 152.262 259.702 152.316 258.274 150.76C256.436 148.757 257.822 145.573 259.262 143.268C267.672 129.8 276.082 116.332 284.491 102.864C285.522 101.214 287.783 100.696 289.678 101.136C291.573 101.576 293.191 102.768 294.75 103.932C300.883 108.514 307.017 113.095 313.15 117.676C316.442 120.135 320.076 123.276 319.887 127.38C319.782 129.651 318.482 131.67 317.225 133.565C312.364 140.889 307.503 148.214 302.642 155.539C299.904 159.665 300.66 165.085 299.832 169.968C298.524 177.683 293.234 184.019 288.335 190.121C283.435 196.223 278.533 203.037 278.258 210.857C277.93 220.178 273.502 229.282 266.371 235.294C268.44 230.277 255.374 232.278 240.427 226.331C242.887 217.63 247.53 209.733 252.126 201.947Z" fill="white"/>
<path fill-rule="evenodd" clip-rule="evenodd" d="M88.0055 223.768C87.0735 223.005 86.7763 221.719 86.6118 220.522C84.7083 206.683 92.8829 193.022 91.4268 179.128C90.6764 171.968 87.3864 165.286 83.2463 159.41C80.3873 155.353 80.227 149.917 81.2936 145.061C82.3603 140.206 84.512 135.666 85.9632 130.913C92.417 109.775 84.564 87.1934 76.8 66.5052C92.2711 59.0238 110.325 60.4728 127.464 61.4864C144.603 62.5 163.036 62.5718 177.321 53C179.279 73.7066 174.962 94.4362 170.669 114.784C192.451 112.662 214.233 110.54 236.015 108.418C236.64 108.357 237.323 108.31 237.842 108.664C238.535 109.138 238.641 110.103 238.681 110.943C239.699 132.477 240.316 154.031 240.532 175.588C240.538 176.129 240.519 176.732 240.14 177.115C239.815 177.443 239.319 177.512 238.861 177.563C208.344 180.964 177.827 184.365 147.309 187.766C144.67 188.06 140.911 187.372 141.066 184.708C141.755 172.83 141.353 160.888 139.866 149.084C131.756 148.777 123.59 150.014 115.93 152.71C114.192 153.321 112.103 154.965 113.04 156.558C119.241 167.096 111.545 182.934 119.966 191.78C122.862 194.821 122.662 199.606 122.088 203.776C120.858 212.713 118.768 221.531 115.857 230.067C117.264 220.242 88.8655 229.036 88.0055 223.768Z" fill="white"/>
<path fill-rule="evenodd" clip-rule="evenodd" d="M0.717723 0.747595C0.743794 0.957378 0.630283 1.17766 0.444315 1.27818C0.29621 1.13 0.148105 0.981821 0 0.833644C0.222028 0.736533 0.473832 0.708835 0.71166 0.755361L0.717723 0.747595Z" fill="#00160A"/>
<path fill-rule="evenodd" clip-rule="evenodd" d="M143.145 204.077C143.665 204.24 144.178 204.441 144.631 204.744C145.481 205.313 146.059 206.197 146.614 207.056C147.011 207.672 147.415 208.299 147.613 209.005C147.828 209.77 147.79 210.586 147.646 211.367C147.197 213.799 145.696 216.019 143.605 217.341C141.515 218.663 138.865 219.067 136.475 218.43C136.01 218.306 135.542 218.136 135.184 217.814C134.883 217.543 134.681 217.183 134.495 216.823C133.522 214.936 132.865 212.839 132.94 210.717C133.015 208.594 133.888 206.446 135.54 205.112C137.614 203.438 140.602 203.279 143.145 204.077M140.231 216.713C141.531 216.516 142.675 215.667 143.422 214.585C144.169 213.503 144.553 212.205 144.737 210.903C144.842 210.16 144.852 209.307 144.327 208.771C144.012 208.449 143.564 208.306 143.133 208.177C141.517 207.693 139.672 207.282 138.224 208.148C137.17 208.779 136.582 209.948 136.049 211.055C135.425 212.351 135.58 213.987 136.435 215.145C137.29 216.302 138.808 216.929 140.231 216.713V216.713Z" fill="#00160A"/>
<path fill-rule="evenodd" clip-rule="evenodd" d="M202.528 145.687C202.55 145.411 202.583 145.115 202.766 144.907C202.944 144.704 203.225 144.631 203.489 144.569C210.28 142.988 217.295 142.369 224.258 142.738C225.145 142.785 226.286 143.085 226.344 143.971C226.681 149.051 227.017 154.132 227.353 159.212C227.37 159.469 227.379 159.754 227.215 159.953C227.081 160.114 226.864 160.177 226.661 160.23C219.418 162.118 211.784 162.49 204.392 161.315C204.202 161.285 204.002 161.249 203.854 161.126C203.676 160.976 203.613 160.733 203.562 160.505C202.472 155.656 202.122 150.641 202.528 145.687ZM204.129 154.115C204.262 156.033 204.665 157.933 205.321 159.741C205.975 159.835 206.623 159.971 207.274 160.081C212.892 161.032 218.637 160.075 224.254 159.12C224.652 159.052 225.089 158.962 225.335 158.641C225.586 158.313 225.553 157.857 225.508 157.446C225.314 155.696 225.121 153.945 224.927 152.194C224.912 152.053 224.892 151.902 224.796 151.797C224.68 151.669 224.49 151.649 224.318 151.637C220.327 151.375 216.323 151.672 212.334 151.97C210.129 152.135 207.924 152.299 205.719 152.464C205.201 152.502 204.613 152.579 204.315 153.005C204.095 153.318 204.102 153.733 204.129 154.115ZM204.191 146.793C203.842 147.911 203.78 149.118 204.011 150.267C204.052 150.474 204.111 150.692 204.267 150.832C204.5 151.041 204.854 151.006 205.163 150.961C208.919 150.411 212.716 150.137 216.513 150.144C217.048 150.145 217.212 149.424 217.207 148.888C217.198 148.104 217.189 147.319 217.181 146.534C217.176 146.08 217.153 145.58 216.842 145.249C216.469 144.851 215.845 144.864 215.3 144.905C214.043 145.001 212.785 145.097 211.527 145.193C210.926 145.239 209.33 145.648 208.596 145.696C207.32 145.9 206.043 146.104 204.766 146.308C204.63 146.329 204.486 146.354 204.381 146.444C204.279 146.531 204.231 146.664 204.191 146.793ZM221.032 150.206C222.03 150.219 223.029 150.119 224.005 149.909C224.238 149.859 224.482 149.795 224.648 149.625C224.891 149.375 224.889 148.983 224.871 148.634C224.819 147.623 224.768 146.611 224.716 145.599C224.698 145.238 224.657 144.832 224.375 144.606C224.127 144.407 223.776 144.419 223.459 144.441C222.349 144.516 221.239 144.592 220.13 144.667C219.954 144.679 219.769 144.694 219.622 144.791C219.353 144.969 219.313 145.341 219.306 145.663C219.281 146.736 219.325 147.81 219.437 148.876C219.469 149.185 219.514 149.51 219.705 149.755C220.003 150.137 220.548 150.2 221.032 150.206Z" fill="#FFB61D"/>
<path fill-rule="evenodd" clip-rule="evenodd" d="M219.909 123.485C221.393 122.843 223.213 123.058 224.506 124.028C225.799 124.998 226.515 126.686 226.314 128.29C227.223 127.799 228.376 127.314 229.224 127.905C230.182 128.571 229.963 130.006 229.819 131.164C229.568 133.188 229.894 135.279 230.749 137.13C231.102 137.895 231.406 139.055 230.622 139.363C230.49 139.415 230.346 139.427 230.204 139.438C221.015 140.179 211.826 140.92 202.636 141.66C202.384 141.68 202.102 141.691 201.911 141.525C201.717 141.356 201.693 141.068 201.682 140.81C201.594 138.648 201.506 136.487 201.418 134.326C201.394 133.746 201.383 133.121 201.71 132.641C202.252 131.849 203.387 131.851 204.336 131.699C205.284 131.547 206.387 130.747 206.022 129.859C205.615 128.869 207.002 128.145 208.06 127.984C209.119 127.823 210.523 127.192 210.202 126.171C209.852 125.055 211.387 124.362 212.547 124.208C213.365 124.1 214.22 123.995 214.996 124.275C215.772 124.556 216.428 125.355 216.253 126.161C216.053 127.085 217.178 127.945 218.064 127.619C218.951 127.293 219.31 126.081 218.861 125.249C218.495 124.57 219.201 123.792 219.909 123.485ZM224.654 137.729C224.31 137.091 224.308 136.333 224.305 135.609C224.29 132.209 224.081 128.81 223.68 125.435C223.659 125.264 223.627 125.074 223.488 124.974C223.367 124.888 223.206 124.898 223.058 124.912C222.34 124.979 221.49 125.138 221.206 125.8C221.085 126.083 221.099 126.403 221.116 126.71C221.298 130.117 221.48 133.525 221.662 136.932C221.679 137.249 221.721 137.613 221.985 137.791C222.128 137.887 222.309 137.905 222.482 137.915C223.21 137.955 223.944 137.892 224.654 137.729ZM212.294 132.49C212.205 133.057 212.08 133.621 212.047 134.195C211.991 135.153 212.193 136.106 212.394 137.045C212.523 137.647 213.301 137.944 213.871 137.711C214.441 137.479 214.786 136.871 214.881 136.263C214.976 135.654 214.864 135.035 214.768 134.427C214.387 132.038 214.222 129.615 214.276 127.197C214.289 126.585 213.692 126.032 213.083 126.093C212.474 126.153 211.997 126.812 212.131 127.41C212.503 129.073 212.559 130.806 212.294 132.49ZM218.338 129.227C217.98 128.758 217.159 129.007 216.879 129.527C216.599 130.047 216.685 130.678 216.754 131.264C216.935 132.795 216.953 134.346 216.806 135.881C216.762 136.333 216.714 136.827 216.964 137.207C217.348 137.791 218.192 137.786 218.887 137.715C219.105 137.693 219.356 137.651 219.466 137.461C219.542 137.329 219.524 137.165 219.504 137.013C219.183 134.632 218.862 132.251 218.541 129.87C218.511 129.644 218.476 129.408 218.338 129.227ZM226.298 130.25C226.028 130.618 225.971 131.097 225.947 131.553C225.867 133.116 226.074 134.678 226.281 136.229C226.362 136.841 226.642 137.626 227.257 137.585C227.88 137.542 228.043 136.708 228.029 136.083C227.99 134.429 227.952 132.774 227.914 131.119C227.903 130.684 227.858 130.18 227.497 129.937C227.118 129.682 226.568 129.882 226.298 130.25ZM207.462 129.859C207.462 129.859 207.736 132.019 207.831 133.119C207.951 134.5 208.104 135.879 208.29 137.253C208.317 137.453 208.352 137.669 208.5 137.806C208.755 138.044 209.739 137.886 209.921 137.588C210.102 137.289 210.092 136.917 210.076 136.568C210.026 135.465 209.976 134.362 209.926 133.259C209.873 132.077 209.592 129.527 209.592 129.527M203.891 137.679C203.969 137.926 204.062 138.185 204.262 138.351C204.653 138.674 205.286 138.474 205.594 138.071C205.901 137.669 205.971 137.138 206.029 136.635C206.102 136.018 206.171 135.376 205.971 134.787C205.771 134.199 205.218 133.681 204.599 133.736C204.029 133.786 203.588 134.306 203.455 134.862C203.322 135.418 203.434 136.002 203.573 136.557C203.667 136.934 203.773 137.308 203.891 137.679Z" fill="#E7EAEE"/>
<path fill-rule="evenodd" clip-rule="evenodd" d="M241.142 49.2461C240.4 50.3598 239.595 51.4879 238.447 52.1755C237.299 52.8631 235.714 52.9971 234.683 52.1446C233.545 51.2041 233.474 49.5087 233.565 48.0351C233.599 47.4678 233.645 46.8959 233.807 46.3512C234.089 45.4065 234.705 44.6004 235.348 43.8529C236.127 42.946 236.991 42.0713 238.073 41.5609C239.154 41.0506 240.498 40.961 241.512 41.5959C242.725 42.356 243.174 43.9727 242.944 45.3857C242.714 46.7986 241.935 48.0548 241.142 49.2461M238.785 50.4244C239.721 49.4279 240.523 48.3066 241.165 47.0996C241.587 46.3052 241.946 45.4419 241.929 44.5426C241.912 43.6433 241.438 42.7033 240.602 42.3696C239.514 41.935 238.32 42.6303 237.411 43.369C236.764 43.895 236.137 44.4719 235.722 45.1952C235.459 45.6525 235.289 46.1558 235.12 46.6554C234.8 47.6004 234.476 48.5851 234.598 49.5753C234.719 50.5655 235.428 51.5596 236.42 51.6622C237.339 51.7572 238.153 51.0976 238.785 50.4244Z" fill="#FFB61D"/>
<path fill-rule="evenodd" clip-rule="evenodd" d="M50.0263 61.8333C51.1885 63.0105 52.1479 64.3875 52.8497 65.8856C53.5551 67.3912 52.844 69.3262 51.4597 70.2473C50.0755 71.1683 48.204 71.1562 46.6863 70.4774C45.1685 69.7986 43.9758 68.5318 43.0973 67.1202C42.4351 66.0559 41.9216 64.8632 41.8665 63.6109C41.8115 62.3587 42.2725 61.0408 43.2632 60.2728C44.2651 59.4961 45.6741 59.3851 46.8858 59.7579C48.0975 60.1306 49.1356 60.9311 50.0263 61.8333ZM45.4915 61.1174C44.4858 61.0138 43.5924 61.9368 43.4199 62.933C43.2474 63.9291 43.6271 64.9398 44.1185 65.8233C45.184 67.7392 47.0852 69.441 49.2749 69.335C50.4005 69.2806 51.6343 68.5008 51.6143 67.3741C51.6056 66.8868 51.3653 66.4373 51.1252 66.0132C50.4874 64.8866 49.7986 63.7715 48.8786 62.8607C47.9586 61.9498 46.7792 61.25 45.4915 61.1174Z" fill="#FFB61D"/>
<path fill-rule="evenodd" clip-rule="evenodd" d="M137.906 210.042C138.713 209.428 139.717 209.031 140.729 209.096C141.741 209.162 142.742 209.742 143.165 210.664C143.62 211.652 143.336 212.881 142.628 213.707C141.919 214.532 140.851 214.988 139.774 215.139C139.038 215.242 138.161 215.149 137.759 214.525C137.564 214.224 137.52 213.854 137.481 213.497C137.411 212.858 137.341 212.218 137.271 211.579C137.241 211.308 137.212 211.027 137.299 210.769C137.402 210.465 137.65 210.235 137.906 210.042M141.099 211.881C141.217 211.791 141.34 211.693 141.391 211.554C141.555 211.109 140.912 210.813 140.438 210.824C139.749 210.84 138.867 211.303 139.078 211.959C139.2 212.338 139.667 212.513 140.059 212.444C140.451 212.374 140.783 212.124 141.099 211.881H141.099Z" fill="#00160A"/>
<path fill-rule="evenodd" clip-rule="evenodd" d="M252.261 5.60282C258.551 12.1145 263.516 19.9009 266.766 28.351C266.989 28.9314 267.206 29.5761 266.993 30.1603C265.353 34.6586 262.189 38.4087 259.087 42.0552L253.139 49.0453C251.246 51.2697 249.353 53.4945 247.397 55.6629C237.435 66.7036 225.664 76.3579 212.032 82.298C211.517 82.5222 210.965 82.7457 210.411 82.6561C209.857 82.5665 209.338 82.0286 209.483 81.4865C211.168 75.186 212.865 68.599 211.512 62.2187C211.186 60.6797 210.822 58.7421 212.094 57.816C222.39 50.3185 229.803 39.6017 236.907 29.0306C238.694 26.3725 240.475 23.707 242.056 20.9218C244.863 15.9766 247.024 10.6658 248.469 5.16627C248.667 4.41159 249.62 4.07175 250.375 4.26953C251.129 4.4673 251.719 5.04162 252.261 5.60282ZM247.859 13.6892C247.22 13.4248 246.63 14.1398 246.305 14.7501C245.952 15.4107 245.6 16.0724 245.247 16.7347C238.73 28.9764 232.113 41.4058 222.181 51.0479C221.243 51.9589 220.194 53.0595 220.367 54.3558C220.921 58.5113 218.703 62.8996 215.028 64.9171C213.359 65.833 213.379 68.1964 213.624 70.084C213.721 70.8397 214.007 71.7869 214.766 71.8509C216.993 72.0386 219.131 73.1349 220.582 74.8343C221.04 75.3704 221.908 75.0353 222.505 74.66C237.53 65.2145 249.074 51.2628 260.346 37.5548C260.735 37.0819 261.149 36.486 260.946 35.9083C259.24 31.0495 259.514 25.5277 261.691 20.8611C260.406 18.3048 258.875 15.8724 257.126 13.6086C254.215 14.8723 250.791 14.9021 247.859 13.6892ZM212.222 79.8027C212.814 80.1131 213.532 79.818 214.125 79.5085C215.683 78.695 217.184 77.7717 218.613 76.7478C218.99 76.4772 219.103 75.9367 218.969 75.4918C218.836 75.0468 218.502 74.6881 218.132 74.4073C216.977 73.5305 215.362 73.2998 214.007 73.8183C213.757 73.914 213.508 74.039 213.336 74.2441C213.134 74.4842 213.06 74.8038 212.995 75.1109C212.668 76.6623 212.41 78.2283 212.222 79.8027ZM254.415 10.4538C253.394 8.45764 251.82 6.74821 249.914 5.56693C249.251 6.15127 249.122 7.03919 248.991 7.94439V7.94446C248.901 8.56559 248.809 9.19485 248.544 9.73975C248.457 9.91722 248.351 10.087 248.245 10.2564C248.044 10.5788 247.844 10.8999 247.779 11.2703C247.681 11.8351 248.159 12.5438 248.701 12.3569C249.142 12.2049 249.604 12.3025 250.07 12.401C250.316 12.4529 250.563 12.5051 250.808 12.521C252.239 12.6133 253.426 11.4923 254.415 10.4538ZM262.506 22.4179C261.413 24.5933 261.586 27.1625 261.784 29.5892L262.07 33.0693C262.101 33.452 262.309 33.9685 262.678 33.8624C262.907 33.2214 263.344 32.6926 263.781 32.1623C264.164 31.6985 264.547 31.2337 264.794 30.6917C265.629 28.8562 264.702 26.7409 263.789 24.943L262.506 22.4179ZM213.551 61.0435C213.597 61.7242 214.304 62.2338 214.986 62.2147C215.668 62.1955 216.282 61.7542 216.68 61.2004C217.079 60.6466 217.297 59.987 217.51 59.3389L218.213 57.1984C218.409 56.6017 218.421 55.6893 217.797 55.6191C217.572 55.5938 217.357 55.7131 217.172 55.8444C216.472 56.3418 215.963 57.0561 215.467 57.7567L214.116 59.665C213.823 60.0789 213.517 60.5376 213.551 61.0435ZM52.4341 55.3303C47.6883 46.641 44.6586 37.0186 43.57 27.1778C43.5031 26.5726 42.8358 26.1807 42.2273 26.2017C41.6189 26.2227 41.0664 26.5442 40.549 26.865C33.2027 31.4198 26.9493 37.7241 22.4543 45.1071C21.9993 45.8544 21.5507 46.648 21.4932 47.521C21.4368 48.3779 21.764 49.209 22.1011 49.9988C27.0596 61.6157 35.3283 71.4689 43.722 80.9075C50.1868 88.1772 57.1074 95.5359 66.1214 99.1952C67.5783 99.7866 69.6944 100.027 70.3121 98.5815C70.4918 98.1609 70.4822 97.6875 70.4729 97.2298L70.4725 97.2125C70.3732 92.3109 70.9302 87.3965 72.124 82.6415C72.4002 81.5414 72.5438 80.0577 71.5147 79.5808C67.6444 77.7872 64.9918 74.1705 62.5113 70.7001C58.9467 65.7128 55.3725 60.7104 52.4341 55.3303ZM60.8122 93.313C60.279 93.4552 59.7466 93.1189 59.3015 92.7927C51.0974 86.7818 44.7397 78.6464 38.4931 70.6203L27.4696 56.4564C29.3303 55.2714 29.5666 52.6966 29.6071 50.4909C29.6599 47.6238 29.6984 44.672 28.6626 41.998C28.4325 41.4037 28.7321 40.745 29.0531 40.1944C30.4295 37.8327 32.3383 35.7833 34.5964 34.2428C34.815 34.0937 35.0464 33.9455 35.3084 33.9085C35.9999 33.8108 36.5305 34.4834 36.9 35.076C38.3595 37.4163 40.3653 40.0631 43.1168 39.8704C44.1644 39.7971 44.7454 41.0311 45.0511 42.0359C48.8517 54.5307 55.9876 65.8006 64.356 75.8275C65.4435 77.1304 65.7163 78.889 65.9867 80.6316C66.2882 82.5748 66.5866 84.4981 68.0081 85.7475C69.2218 86.8143 68.9966 88.7301 68.6691 90.3124C68.602 90.6362 68.5222 90.9831 68.2763 91.2041C68.0936 91.3682 67.8467 91.4366 67.6094 91.4999L60.8122 93.313ZM41.363 36.9761C39.858 35.9245 38.558 34.5808 37.5568 33.0418C37.3403 32.7089 37.1299 32.3358 37.1679 31.9405C37.2093 31.5107 37.5327 31.1667 37.8544 30.8787C38.649 30.1676 39.5471 29.5723 40.5115 29.1173C40.8647 28.9507 41.3207 28.8154 41.614 29.073C41.7868 29.2248 41.8413 29.4672 41.8864 29.6927L43.2764 36.6447C43.3586 37.0557 42.9275 37.4259 42.5086 37.4378C42.0896 37.4497 41.7065 37.2162 41.363 36.9761ZM27.6071 50.4225C27.5776 51.7302 27.4777 53.1977 26.4977 54.064C26.2927 54.0883 26.1565 53.8633 26.0761 53.673C25.37 52.0016 24.6541 50.2899 24.5429 48.4789C24.4318 46.6678 25.0387 44.7067 26.5186 43.6569C26.7189 43.5149 27.0126 43.3976 27.1894 43.568C27.2604 43.6365 27.2908 43.7358 27.3167 43.8311C27.7188 45.3093 27.6872 46.866 27.6527 48.3975L27.6071 50.4225ZM67.5433 93.9187C67.781 94.1132 67.8063 94.4611 67.8128 94.7681L67.8834 98.1292C66.5046 97.3649 65.1837 96.4962 63.9356 95.533C63.699 95.3504 63.4389 95.0547 63.5839 94.7933C63.6558 94.6636 63.8051 94.6011 63.9442 94.5498C64.8364 94.2209 65.7589 93.9741 66.6961 93.8137C66.9859 93.7641 67.3159 93.7326 67.5433 93.9187ZM67.6227 80.679C67.6101 80.5272 67.6101 80.3618 67.7003 80.2391C67.9384 79.9155 68.4551 80.2085 68.6735 80.5458C69.1996 81.3581 69.3158 82.422 68.9773 83.3287C68.2048 82.6665 67.7071 81.693 67.6227 80.679ZM272.997 55.1573C274.371 53.4266 276.877 53.1776 279.086 53.2315C279.602 53.2441 280.133 53.2691 280.603 53.4832C281.91 54.0789 282.188 55.7869 282.232 57.2225C282.272 58.5289 282.265 59.8523 281.947 61.1201C281.63 62.3879 280.973 63.6094 279.923 64.3874C279.451 64.7371 278.903 64.992 278.324 65.089C277.428 65.239 276.512 65.009 275.661 64.6923C274.527 64.2704 273.452 63.6909 272.476 62.9758C271.999 62.6265 271.507 62.1691 271.492 61.5782C271.456 60.2157 271.609 58.8484 271.944 57.5272C272.158 56.6828 272.456 55.8395 272.997 55.1573ZM276.561 63.7769C278.325 64.2835 280.202 62.9184 280.871 61.2088C281.539 59.4992 281.292 57.5789 280.924 55.7804C280.783 55.0899 280.045 54.7042 279.365 54.5195C278.312 54.2337 277.193 54.1958 276.123 54.4098C275.591 54.5161 275.048 54.6982 274.675 55.0916C274.472 55.3059 274.331 55.5706 274.193 55.8318L273.159 57.7854C272.977 58.129 272.794 58.4757 272.687 58.8494C272.368 59.9673 272.79 61.2086 273.571 62.0703C274.351 62.9319 275.443 63.4561 276.561 63.7769ZM252.945 83.5306C254.563 84.0952 256.03 85.0882 257.155 86.381C258.122 87.4921 258.858 88.9346 258.655 90.3934C258.58 90.929 258.383 91.4397 258.157 91.9312C257.304 93.7929 255.836 95.577 253.82 95.9375C252.762 96.1266 251.672 95.9 250.655 95.554C249.479 95.1538 248.357 94.5925 247.332 93.8907C246.788 93.5184 246.248 93.0766 246.009 92.4622C245.845 92.0387 245.84 91.5723 245.846 91.1181C245.861 89.9948 245.936 88.8525 246.328 87.7996C246.823 86.4674 247.793 85.3677 248.821 84.3862C249.234 83.9915 249.673 83.6026 250.204 83.3911C251.072 83.0449 252.062 83.2225 252.945 83.5306ZM254.599 93.3217C255.769 92.1647 256.449 90.4874 256.264 88.8528C256.079 87.2182 254.972 85.6844 253.425 85.1263C252.782 84.8944 252.069 84.8297 251.41 85.012C251.054 85.1103 250.721 85.2778 250.41 85.4757C249.078 86.3228 248.143 87.7679 247.916 89.3299C247.689 90.8919 248.174 92.5434 249.209 93.7347C249.873 94.4975 250.955 94.8246 251.958 94.6979C252.961 94.5712 253.881 94.0327 254.599 93.3217ZM106.925 73.8947C106.871 73.124 105.841 72.922 105.068 72.9447C101.014 73.0639 96.9645 73.3677 92.9375 73.8549C92.2759 73.9349 92.2225 75.0013 92.7533 75.4042C93.2841 75.8071 94.0236 75.7322 94.6833 75.6382L106.925 73.8947ZM93.9638 79.1063C93.9987 78.7094 94.4975 78.5658 94.8934 78.521L118.775 75.8164C119.207 75.7675 119.667 75.7232 120.056 75.9178C120.444 76.1123 120.695 76.6444 120.441 76.9972C120.254 77.2574 119.895 77.3102 119.576 77.3412L95.1498 79.7115C94.6419 79.7608 93.9192 79.6147 93.9638 79.1063ZM147.503 83.129C146.167 83.4226 144.795 82.9404 143.514 82.4615C139.371 80.913 135.243 79.3218 131.133 77.6881C129.473 77.0286 127.653 78.0162 126.16 78.9965C121.842 81.8336 117.683 84.9153 113.713 88.2219C112.693 89.0713 111.123 88.4754 110.095 87.6365C109.877 87.4592 109.663 87.27 109.448 87.0802L109.448 87.08C108.647 86.372 107.835 85.6548 106.799 85.5078C105.206 85.2818 103.805 86.4893 102.65 87.6103L95.2066 94.8396C94.2055 95.8119 93.1517 97.3689 94.0427 98.4429C94.6306 99.1516 95.7099 99.1155 96.6245 99.0095C101.4 98.4559 106.152 97.6797 110.902 96.9037C118.753 95.6213 126.6 94.3396 134.541 94.0649C136.3 94.004 138.061 93.9928 139.822 93.9816C140.925 93.9746 142.027 93.9676 143.13 93.9484C148.102 93.8617 153.07 93.5267 158.008 92.9449C158.247 92.9168 158.519 92.8676 158.643 92.6615C158.737 92.5058 158.713 92.3094 158.687 92.1297L156.595 77.8958C156.489 77.1726 156.303 76.3366 155.642 76.0242C154.974 75.7085 154.188 76.1155 153.64 76.6106C152.782 77.3854 152.121 78.4143 151.469 79.4292C150.4 81.0943 149.355 82.7219 147.503 83.129ZM113.53 90.9175C117.998 87.2439 122.657 83.8024 127.481 80.6114C128.472 79.9562 129.676 79.2854 130.783 79.7156L142.481 84.2614C144.434 85.02 146.569 85.7886 148.573 85.1803C150.903 84.4732 152.296 82.1549 153.47 80.0212C153.698 79.6062 154.362 79.654 154.69 79.9949C155.019 80.3359 155.102 80.8376 155.17 81.3064L156.026 87.2423C156.158 88.1538 156.287 89.0995 156.024 89.9819C155.76 90.8643 154.986 91.6658 154.066 91.6481C139.007 91.3573 123.92 92.599 109.112 95.3478C108.657 95.4322 108.202 95.5181 107.747 95.604L107.742 95.6049L107.739 95.6055L107.735 95.6062C104.198 96.2741 100.647 96.9444 97.0519 96.9564C98.7879 94.4975 100.988 92.4091 103.172 90.3383C104.371 89.2013 105.871 87.9749 107.481 88.3468C108.351 88.5477 109.018 89.1724 109.681 89.794C109.894 89.9934 110.106 90.1924 110.325 90.377C111.225 91.1372 112.62 91.6659 113.53 90.9175ZM306.717 132.325C306.317 132.473 305.872 132.372 305.465 132.244C302.711 131.378 300.475 129.442 298.277 127.54L298.272 127.535C297.976 127.279 297.681 127.023 297.385 126.771C293.744 123.665 289.792 120.923 285.607 118.599C285.181 118.362 284.735 118.114 284.474 117.702C284.213 117.291 284.221 116.665 284.623 116.39C286.5 115.109 287.717 112.911 287.806 110.64C287.83 110.035 288.513 109.632 289.117 109.681C289.72 109.729 290.247 110.092 290.74 110.442L309.861 124.015C310.233 124.279 310.634 124.586 310.725 125.033C310.8 125.398 310.647 125.767 310.493 126.106C309.668 127.926 308.72 129.689 307.656 131.381C307.416 131.764 307.141 132.167 306.717 132.325ZM287.588 116.223C287.363 116.62 287.168 117.193 287.532 117.467L303.135 129.215C303.99 129.859 305.318 130.462 305.991 129.63C306.763 128.675 307.485 127.679 308.151 126.648C308.334 126.365 308.52 126.043 308.454 125.713C308.394 125.413 308.141 125.194 307.903 125.001C302.176 120.358 296.114 116.13 289.777 112.362L287.588 116.223ZM279.822 123.407C280.074 122.975 280.38 122.502 280.869 122.396C281.243 122.315 281.624 122.475 281.968 122.643C283.847 123.555 285.568 124.792 287.031 126.281C287.384 126.64 287.427 127.217 287.27 127.694C287.114 128.172 286.791 128.574 286.474 128.964C285.965 129.591 285.422 130.243 284.671 130.541C283.861 130.862 282.918 130.707 282.15 130.294C281.382 129.881 280.766 129.234 280.223 128.552C279.515 127.662 278.881 126.595 278.991 125.463C279.063 124.721 279.447 124.051 279.822 123.407ZM283.108 128.389C284.29 128.848 285.046 128.484 285.077 127.709C285.097 127.22 284.67 126.844 284.282 126.545L283.108 125.643C282.721 125.344 282.293 125.032 281.803 125.035C281.314 125.038 280.816 125.543 281.016 125.989C280.986 126.205 281.927 127.929 283.108 128.389ZM278.445 137.928C278.733 138.086 279.038 138.24 279.367 138.247C279.695 138.254 280.051 138.068 280.132 137.75C280.321 137.002 280.816 136.382 281.3 135.776L281.303 135.772C281.355 135.707 281.407 135.642 281.458 135.577C281.988 134.906 282.5 134.146 282.514 133.291C282.528 132.436 281.82 131.524 280.972 131.641C280.305 131.733 279.684 131.295 279.199 130.827C279.122 130.752 279.045 130.676 278.968 130.599C278.562 130.194 278.15 129.783 277.611 129.607C276.97 129.399 276.098 129.731 276.047 130.403C275.945 131.756 274.82 132.775 273.776 133.643C273.464 133.903 273.746 134.402 274.038 134.684C275.354 135.955 276.84 137.05 278.445 137.928ZM278.653 135.349L276.598 133.959C276.075 133.606 276.117 132.74 276.583 132.314C277.049 131.889 277.773 131.856 278.367 132.069C278.961 132.282 279.455 132.7 279.935 133.11C280.252 133.381 280.296 133.874 280.151 134.266C280.006 134.657 279.71 134.971 279.421 135.273C279.323 135.376 279.212 135.486 279.071 135.504C278.92 135.523 278.779 135.434 278.653 135.349ZM294.945 135.441L295.95 133.306C296.257 132.652 296.556 131.843 296.14 131.252C295.996 131.047 295.783 130.902 295.575 130.762L291.919 128.298C291.525 128.032 291.098 127.756 290.622 127.764C290.059 127.773 289.587 128.175 289.187 128.571C288.588 129.165 288.027 129.799 287.511 130.466C287.118 130.974 286.795 131.81 287.332 132.162L292.926 135.833C293.368 136.122 293.928 136.42 294.392 136.168C294.664 136.02 294.813 135.721 294.945 135.441ZM293.705 133.929C293.47 133.983 293.225 133.924 292.994 133.854C291.582 133.429 290.289 132.613 289.296 131.523C288.966 131.16 289.153 130.519 289.572 130.265C289.992 130.011 290.537 130.069 290.99 130.259C291.282 130.382 291.549 130.553 291.817 130.724C291.908 130.782 292 130.841 292.092 130.897L292.141 130.927C292.181 130.951 292.221 130.974 292.261 130.997C292.424 131.09 292.593 131.175 292.763 131.26C293.243 131.5 293.725 131.742 294.053 132.159C294.496 132.723 294.404 133.769 293.705 133.929ZM295.595 136.314C296.239 136.161 296.436 135.504 296.641 134.82C296.81 134.256 296.985 133.673 297.422 133.343C298.174 132.774 299.239 133.25 300.05 133.732L302.627 135.265C303.037 135.509 303.458 135.762 303.752 136.138C304.047 136.514 304.191 137.047 303.985 137.479C303.848 137.766 303.588 137.957 303.326 138.15C303.111 138.307 302.895 138.466 302.744 138.679C302.551 138.954 302.479 139.298 302.407 139.638C302.318 140.065 302.23 140.485 301.904 140.753C301.311 141.242 300.429 140.85 299.773 140.449L296.143 138.231C295.776 138.007 295.39 137.761 295.21 137.372C295.03 136.982 295.177 136.413 295.595 136.314ZM300.354 138.517C300.874 138.34 301.292 137.954 301.693 137.579C301.984 137.307 301.595 136.859 301.248 136.664L299.024 135.411C298.792 135.281 298.469 135.162 298.289 135.358C297.71 135.99 297.625 137.022 298.095 137.74C298.564 138.458 299.543 138.794 300.354 138.517ZM274.833 138.44C274.335 138.299 273.828 138.156 273.421 137.879C272.79 137.448 271.91 137.552 271.247 137.933C270.585 138.314 270.09 138.924 269.612 139.52C269.346 139.851 269.074 140.196 268.972 140.608C268.871 141.02 268.992 141.52 269.363 141.726L273.242 143.888C273.535 144.052 273.863 144.221 274.191 144.148C274.518 144.076 274.744 143.785 274.941 143.515L275.939 142.141C276.494 141.377 277.075 140.403 276.669 139.549C276.343 138.865 275.599 138.656 274.833 138.44ZM273.605 141.997C273.402 142.05 273.193 141.953 273.006 141.857L270.364 140.512C270.872 139.793 271.838 139.518 272.715 139.605C273.591 139.692 274.404 140.081 275.197 140.465L273.982 141.726C273.873 141.839 273.757 141.957 273.605 141.997ZM255.298 88.2192C255.707 88.8431 255.578 89.6767 255.307 90.3717C254.949 91.2876 254.345 92.1362 253.491 92.6234C252.637 93.1107 251.515 93.1819 250.683 92.6583C249.85 92.1346 249.433 90.9701 249.879 90.0937C249.982 89.8911 250.122 89.7116 250.263 89.5321L250.263 89.5319C250.398 89.3601 250.533 89.1881 250.634 88.9958C250.701 88.8693 250.754 88.735 250.806 88.601C250.881 88.4076 250.956 88.2146 251.075 88.0459C251.499 87.4461 252.333 87.3281 253.067 87.3385C253.901 87.3503 254.841 87.5225 255.298 88.2192ZM253.438 88.6155C252.299 88.6012 251.23 89.5567 251.117 90.6907C251.071 91.1541 251.268 91.7302 251.729 91.794C252.075 91.8419 252.378 91.5748 252.61 91.3145C253.102 90.7636 253.524 90.1509 253.864 89.4955C253.978 89.2756 254.078 88.9934 253.928 88.7961C253.819 88.6524 253.619 88.6178 253.438 88.6155ZM280.691 58.8962C280.604 57.8528 279.906 56.8266 278.892 56.5652C277.604 56.2331 276.355 57.14 275.333 57.9907C275.03 58.2423 274.715 58.5129 274.587 58.8849C274.369 59.5162 274.76 60.1813 275.145 60.7267C275.586 61.3512 276.057 61.979 276.701 62.3917C277.345 62.8045 278.203 62.9648 278.878 62.6061C279.222 62.4232 279.49 62.1246 279.722 61.812C280.348 60.972 280.779 59.9396 280.691 58.8962ZM277.835 61.5711C277.399 61.6366 276.946 61.4603 276.624 61.1577C276.143 60.7044 275.952 59.9757 276.12 59.3362C276.297 58.6629 276.863 58.1068 277.539 57.9407C278.215 57.7746 278.973 58.0055 279.442 58.5202C279.425 58.6604 279.41 58.8015 279.395 58.9427V58.943C279.346 59.4227 279.296 59.9033 279.13 60.3539C278.914 60.9373 278.45 61.4789 277.835 61.5711ZM243.167 224.325C245.542 215.924 250.025 208.299 254.462 200.781C255.212 199.51 256.142 198.111 257.598 197.869C258.172 197.774 258.475 197.151 258.67 196.603C261.076 189.852 261.308 182.345 259.323 175.459C258.757 173.493 259.454 171.409 260.145 169.484L265.489 154.575C264.933 153.614 263.882 153.191 262.817 152.763C261.927 152.405 261.026 152.044 260.398 151.359C258.624 149.426 259.962 146.351 261.352 144.126L285.712 105.114C286.707 103.521 288.89 103.022 290.719 103.446C292.549 103.871 294.112 105.022 295.617 106.146L313.383 119.416C316.561 121.79 320.07 124.822 319.887 128.785C319.786 130.978 318.531 132.927 317.317 134.757L303.237 155.973C301.416 158.717 301.195 162.052 300.973 165.403C300.873 166.918 300.773 168.437 300.524 169.905C299.31 177.068 294.539 183.001 289.968 188.684C289.786 188.911 289.604 189.138 289.423 189.364C284.692 195.255 279.959 201.834 279.693 209.385C279.377 218.384 275.101 227.174 268.217 232.979L274.207 218.445C275.632 214.989 276.951 210.689 274.567 207.81C273.488 206.507 271.858 205.818 270.293 205.175L260.989 201.358C260.347 201.095 259.686 200.827 258.992 200.823C256.831 200.81 255.545 203.154 254.669 205.13C251.637 211.966 247.764 218.428 243.167 224.325ZM273.761 204.588C275.356 205.178 277.602 205.537 278.358 204.013C282.017 196.638 285.776 189.12 291.6 183.301C294.957 179.947 297.014 175.471 298.179 170.87C299.343 166.27 299.672 161.506 299.997 156.771C298.584 157.286 298.461 159.193 298.467 160.697C298.48 164.013 297.901 167.33 296.764 170.444C296.526 171.096 296.206 171.801 295.569 172.076C294.932 172.351 293.993 171.798 294.208 171.138C295.851 166.072 296.464 160.674 295.997 155.368C295.852 153.723 295.546 151.963 294.376 150.797C294.503 153.395 294.63 156.004 294.367 158.591C293.911 163.067 292.306 167.335 290.716 171.544C290.509 172.09 290.259 172.686 289.735 172.943C289.21 173.199 288.396 172.792 288.533 172.225L290.915 162.377C292.225 156.963 293.513 151.138 291.485 145.95C290.464 145.881 290.224 147.341 290.315 148.361C290.939 155.343 289.009 162.274 287.098 169.019C286.875 169.806 286.085 170.791 285.471 170.249C285.207 170.016 285.195 169.613 285.216 169.261C285.337 167.278 285.88 165.357 286.423 163.439C286.592 162.844 286.761 162.249 286.916 161.652C288.352 156.151 288.719 150.373 287.989 144.735C286.73 146.348 286.197 148.394 285.693 150.376L282.703 162.146C281.351 167.466 279.624 173.315 274.937 176.173C274.564 176.401 274.131 176.613 273.705 176.512C273.177 176.386 272.877 175.84 272.657 175.344C269.666 168.606 269.292 160.746 271.63 153.755C271.772 153.331 271.341 152.887 270.895 152.852C270.449 152.817 270.031 153.06 269.666 153.318C265.828 156.026 264.358 160.931 263.138 165.466L261.515 171.496C261.278 172.377 261.039 173.266 260.99 174.177C260.914 175.561 261.276 176.915 261.636 178.262C261.719 178.575 261.802 178.887 261.88 179.198C263.441 185.463 262.736 192.268 259.923 198.079C259.508 198.936 260.603 199.716 261.496 200.046L273.761 204.588ZM279.823 147.036C279.183 146.595 278.498 146.092 278.3 145.341C277.996 144.189 279.094 143.031 280.275 142.876C281.457 142.721 282.612 143.291 283.591 143.97C284.97 144.927 286.716 143.468 287.748 142.145C286.355 141.312 285.027 140.018 284.972 138.396C284.917 136.774 286.889 135.229 288.202 136.184C288.711 136.554 289.327 136.781 289.937 137.005C290.85 137.341 291.747 137.671 292.248 138.471C292.817 139.38 292.615 140.609 292.035 141.512C291.455 142.415 290.563 143.063 289.692 143.689C290.942 143.813 292.16 144.259 293.195 144.972L294.323 141.686C294.41 141.431 294.505 141.165 294.706 140.985C295.092 140.638 295.694 140.745 296.189 140.902C297.487 141.314 298.761 141.958 299.618 143.017C300.475 144.076 300.833 145.614 300.234 146.838C299.635 148.062 297.944 148.714 296.799 147.977C296.561 147.823 296.322 147.619 296.084 147.414C295.445 146.867 294.807 146.32 294.191 146.758C296.072 148.223 297.365 150.425 297.728 152.782C303.652 143.758 309.512 134.693 315.309 125.586C315.862 124.717 316.309 123.347 315.407 122.847C311.558 120.711 308.156 117.851 304.761 114.998C300.477 111.396 296.205 107.806 291.064 105.697C290.738 105.564 290.381 105.434 290.04 105.524C289.682 105.618 289.431 105.929 289.206 106.223C279.632 118.718 271.04 131.966 263.535 145.803C262.487 147.733 263.889 150.034 265.23 151.774C265.899 152.643 267.193 153.561 267.923 152.742C268.844 151.71 270.353 151.12 271.657 151.581C272.961 152.042 273.772 153.738 273.063 154.925C272.55 155.784 273.554 156.738 274.432 157.219C276.184 158.179 277.982 159.057 279.817 159.848C280.073 159.958 280.369 160.066 280.618 159.941C280.855 159.823 280.95 159.541 281.024 159.287L283.057 152.292C283.392 151.141 283.615 149.648 282.629 148.968L279.823 147.036ZM316.192 127.426C315.922 127.334 315.675 127.604 315.517 127.841L300.294 150.628C299.885 151.241 299.465 151.879 299.346 152.606C299.226 153.333 299.494 154.179 300.156 154.503C301.252 155.039 302.399 153.912 303.103 152.915L317.246 132.869C318.296 131.381 317.407 129.346 316.509 127.762C316.431 127.625 316.341 127.477 316.192 127.426ZM273.333 157.855C273.065 157.66 272.664 157.776 272.44 158.02C272.215 158.264 272.124 158.598 272.039 158.919C271.831 159.708 271.622 160.505 271.591 161.32C271.56 162.136 271.708 162.946 271.856 163.749L273.314 171.672C273.375 172.005 273.446 172.358 273.682 172.6C273.918 172.842 274.377 172.894 274.567 172.616C276.725 169.46 278.913 166.243 280.042 162.591C280.182 162.137 280.223 161.498 279.778 161.331C277.486 160.469 275.312 159.296 273.333 157.855ZM290.167 138.304C289.436 137.608 288.471 137.163 287.467 137.061C286.552 136.968 286.023 138.253 286.441 139.073C286.859 139.892 287.782 140.298 288.636 140.641C289.239 140.882 289.97 141.11 290.495 140.728C291.25 140.18 290.843 138.947 290.167 138.304ZM284.157 147.486C284.455 147.274 284.494 146.841 284.411 146.485C284.096 145.144 282.626 144.458 281.305 144.066C280.794 143.914 280.159 143.808 279.799 144.201C279.498 144.529 279.562 145.072 279.822 145.433C280.081 145.795 280.487 146.018 280.878 146.229L282.918 147.327C283.305 147.536 283.799 147.741 284.157 147.486ZM295.762 142.652C295.33 143.23 295.374 144.071 295.734 144.696C296.094 145.321 296.718 145.755 297.377 146.051C297.602 146.152 297.85 146.242 298.092 146.193C298.301 146.152 298.48 146.011 298.607 145.841C299.078 145.211 298.85 144.263 298.31 143.691C297.77 143.119 297.002 142.833 296.263 142.565C296.135 142.518 295.987 142.474 295.87 142.544C295.846 142.558 295.825 142.577 295.805 142.598C295.79 142.615 295.775 142.633 295.762 142.652ZM91.2243 195.06C91.5067 192.974 91.9024 190.677 93.5419 189.355C94.8493 188.302 96.6441 188.133 98.323 188.101C103.823 187.995 109.341 188.889 114.526 190.724C116.167 191.305 117.884 192.069 118.781 193.561C119.752 195.175 119.515 197.211 119.247 199.076L115.081 228.01C117.953 219.631 120.015 210.974 121.229 202.2C121.795 198.106 121.993 193.409 119.136 190.423C114.676 185.762 114.797 179.123 114.921 172.372C115.028 166.546 115.136 160.637 112.302 155.845C111.377 154.281 113.439 152.667 115.154 152.067C122.711 149.421 130.767 148.207 138.769 148.508C140.236 160.096 140.633 171.82 139.953 183.481C139.8 186.096 143.509 186.771 146.113 186.482L236.44 176.466C236.892 176.416 237.381 176.349 237.701 176.026C238.075 175.65 238.094 175.058 238.088 174.527C237.875 153.364 237.266 132.204 236.262 111.064C236.222 110.239 236.117 109.291 235.434 108.827C234.922 108.478 234.248 108.525 233.632 108.584L169.16 114.834C173.396 94.8584 177.655 74.5077 175.723 54.1794C161.629 63.5763 143.443 63.5059 126.533 62.5108C125.83 62.4694 125.126 62.4273 124.42 62.3852C108.147 61.4126 91.1765 60.3984 76.5468 67.4379C84.2069 87.748 91.9549 109.917 85.5874 130.669C85.0241 132.505 84.3538 134.308 83.6838 136.111C82.6509 138.89 81.6187 141.667 80.9803 144.559C79.9279 149.325 80.0861 154.662 82.9069 158.645C86.9916 164.414 90.2375 170.973 90.9779 178.002C91.6805 184.673 90.1106 191.289 88.5426 197.897C86.9042 204.802 85.2677 211.698 86.2273 218.64C86.3897 219.815 86.6829 221.078 87.6024 221.827L91.2243 195.06ZM97.615 111.236C99.3231 111.296 100.002 113.441 100.22 115.136L101.95 128.56C98.5732 126.809 93.8228 129.78 93.9197 133.583C91.0744 128.091 90.6421 121.797 90.2141 115.566C90.121 114.211 90.0281 112.858 89.9106 111.518C88.6544 97.183 84.3343 83.318 80.0408 69.584C79.4286 67.6256 82.073 66.3556 84.1032 66.058C97.4255 64.1047 110.909 64.3744 124.398 64.6442C130.513 64.7665 136.629 64.8889 142.731 64.8042C153.575 64.6538 165.049 63.6275 173.845 57.2842C175.822 70.4639 173.135 83.7613 170.481 96.8911C170.122 98.6672 169.764 100.44 169.418 102.209C166.514 117.058 164.537 132.886 170.094 146.958C170.328 147.551 169.53 147.998 168.906 148.129C164.336 149.082 159.61 149.287 154.975 148.734C152.987 148.496 151.019 148.121 149.051 147.746C147.569 147.464 146.087 147.181 144.596 146.957C133.368 145.273 121.648 147.021 111.401 151.91C110.99 152.106 110.502 152.015 110.072 151.866C107.996 151.147 106.516 149.23 105.777 147.162C105.038 145.094 104.933 142.861 104.834 140.667L104.421 131.466C104.406 131.135 104.492 130.686 104.823 130.676C122.774 130.115 140.704 128.905 158.567 127.049C157.812 122.822 157.737 118.475 158.346 114.225C158.731 111.542 156.208 109.096 153.521 108.737C150.835 108.378 148.178 109.595 145.947 111.134C145.113 111.71 144.312 112.336 143.511 112.961C142.171 114.007 140.832 115.052 139.342 115.862C138.366 116.392 137.193 116.82 136.169 116.392C134.915 115.868 134.495 114.376 134.119 113.045C134.096 112.961 134.073 112.878 134.049 112.796C133.56 111.081 132.753 109.375 131.333 108.297C129.913 107.218 127.771 106.95 126.369 108.052C125.171 108.994 124.792 110.626 124.591 112.137C124.573 112.272 124.556 112.407 124.539 112.542C124.361 113.932 124.177 115.368 123.347 116.482C122.437 117.705 120.406 118.229 119.408 117.077C117.434 114.798 113.97 114.32 111.063 115.12C108.157 115.92 105.669 117.767 103.258 119.576C101.803 117.299 101.682 114.233 102.954 111.849L102.976 111.809C103.215 111.362 103.489 110.848 103.278 110.392C103.147 110.11 102.858 109.937 102.572 109.814C100.862 109.081 98.6766 109.708 97.615 111.236ZM149.013 149.714C149.969 149.905 151.144 150.332 151.204 151.305C151.768 160.588 159.145 168.93 168.215 170.985C177.286 173.039 187.338 168.885 192.627 161.235C197.916 153.584 198.33 142.957 193.993 134.73C189.342 125.907 178.04 121.221 168.51 124.166C168.068 122.216 168.118 120.157 168.654 118.231C168.754 117.873 168.883 117.499 169.172 117.265C169.454 117.037 169.835 116.985 170.195 116.942L197.039 113.709C199.399 113.425 201.765 113.14 204.142 113.12C214.364 113.036 224.578 112.017 234.614 110.08C236.174 131.021 236.908 152.024 236.814 173.024C236.809 174.02 236.506 175.344 235.51 175.373C218.616 175.865 201.855 178.087 185.087 180.311C173.821 181.804 162.553 183.298 151.239 184.268C148.717 184.484 146.178 184.675 143.659 184.434C143.202 184.391 142.687 184.298 142.439 183.912C142.289 183.679 142.272 183.388 142.26 183.112L140.753 149.523C140.734 149.089 140.76 148.566 141.136 148.348C141.385 148.204 141.697 148.256 141.979 148.312L149.013 149.714ZM102.792 141.938C102.525 143.683 102.225 145.645 103.367 146.965C107.63 151.888 112.059 157.148 113.192 163.561C113.721 166.556 113.494 169.638 113.268 172.708C112.982 176.574 112.699 180.421 113.93 184.049C113.962 184.143 113.995 184.238 114.029 184.333C114.255 184.98 114.485 185.639 114.412 186.314C114.328 187.088 113.656 187.867 112.888 187.735L103.976 186.198C101.025 185.689 97.9071 185.194 95.1037 186.247C94.5617 186.451 93.9378 186.093 93.6474 185.592C93.3569 185.092 93.3187 184.489 93.2935 183.91C93.2631 183.212 93.2403 182.508 93.2174 181.803C93.0735 177.366 92.9268 172.847 90.8733 168.96L84.3214 156.557C83.3542 154.726 82.3643 152.813 82.2976 150.744C82.253 149.362 82.6261 148.004 82.996 146.672L86.2646 134.898C86.9527 132.419 87.6807 129.862 89.3103 127.871C93.2693 134.588 93.66 143.277 90.3197 150.322C90.0107 150.973 90.9546 151.644 91.6275 151.385C92.3004 151.125 92.642 150.388 92.8792 149.707C93.8294 146.979 94.1625 144.102 94.4962 141.222C94.7661 138.891 95.0364 136.558 95.634 134.299C96.0001 132.914 96.5283 131.501 97.5972 130.548C98.6662 129.596 100.41 129.269 101.53 130.161C102.387 130.844 102.666 132.011 102.829 133.094C103.259 135.953 103.257 138.877 102.823 141.735C102.813 141.803 102.802 141.87 102.792 141.938ZM118.169 118.694C119.483 119.7 120.769 120.684 122.345 120.502C124.349 120.27 125.597 118.208 126.179 116.277C126.306 115.854 126.42 115.422 126.533 114.988C126.938 113.441 127.347 111.882 128.408 110.718C128.717 110.38 129.161 110.065 129.599 110.197C129.954 110.305 130.161 110.664 130.326 110.996C130.56 111.467 130.781 111.946 131.002 112.425C131.625 113.775 132.249 115.126 133.155 116.3C134.381 117.889 136.289 119.14 138.285 118.921C140.07 118.725 141.464 117.462 142.823 116.23C143.102 115.977 143.379 115.726 143.658 115.486C146.932 112.663 151.195 111.011 155.516 110.892C154.933 112.349 155.322 113.938 155.703 115.497C155.795 115.872 155.887 116.246 155.964 116.616C156.574 119.532 156.265 122.633 155.093 125.372L126.232 127.594C119.495 128.113 112.74 128.632 105.987 128.395C105.56 128.38 105.123 128.359 104.73 128.191C103.989 127.874 103.549 127.083 103.389 126.293C103.032 124.521 103.849 122.675 105.086 121.357C106.324 120.039 107.94 119.152 109.527 118.286C111.179 117.385 113.012 116.455 114.854 116.839C116.079 117.095 117.133 117.901 118.169 118.694ZM172.82 160.736C168.448 160.646 164.66 157.078 163.362 152.902C163.097 152.05 163.648 151.114 164.408 150.646C165.169 150.178 166.088 150.067 166.976 149.968L173.382 149.248C171.434 145.461 170.046 141.387 169.278 137.198C169.209 136.818 169.145 136.419 169.265 136.052C169.476 135.407 170.171 135.068 170.814 134.852C176.019 133.103 182.269 135.226 185.33 139.785C188.39 144.344 187.989 150.934 184.397 155.087C182.841 156.885 180.803 158.212 178.656 159.233C176.826 160.104 174.847 160.777 172.82 160.736ZM193.568 138.228C194.346 140.797 194.571 143.499 194.678 146.181C192.931 145.917 191.166 145.767 189.4 145.732C189.054 141.221 186.052 137.145 182.104 134.934C178.157 132.723 173.392 132.245 168.931 133.002C168.894 132.366 168.778 131.703 168.662 131.039C168.356 129.288 168.05 127.537 169.182 126.294C169.866 125.543 170.908 125.243 171.906 125.057C176.454 124.21 181.303 125.097 185.256 127.501C189.208 129.904 192.228 133.801 193.568 138.228ZM161.502 152.447C161.494 152.53 161.487 152.612 161.484 152.69C161.454 153.314 161.744 153.886 162.032 154.452C162.109 154.603 162.186 154.755 162.256 154.906C162.59 155.624 162.751 156.57 162.194 157.132C160.846 158.493 159.655 160.008 158.652 161.639C158.404 162.043 157.794 162.076 157.386 161.835C156.978 161.595 156.725 161.166 156.489 160.755C154.998 158.155 153.469 155.435 153.283 152.444C153.26 152.072 153.301 151.622 153.631 151.448C153.776 151.372 153.948 151.37 154.112 151.369L160.781 151.349C160.94 151.348 161.108 151.35 161.247 151.429C161.574 151.615 161.536 152.046 161.502 152.447Z" fill="#00160A"/>
</svg>
